/* XPM */
static char *blackhole_img1678549371[] = {
/* columns rows colors chars-per-pixel */
"48 48 240 2 ",
"   c #020202",
".  c #0A0203",
"X  c #050308",
"o  c #141413",
"O  c #0B0E13",
"+  c #3C0300",
"@  c #171A22",
"#  c #362B30",
"$  c #353432",
"%  c #4C0909",
"&  c #520909",
"*  c #590604",
"=  c #511012",
"-  c #640402",
";  c #690903",
":  c #710102",
">  c #7C0300",
",  c #740B03",
"<  c #790B06",
"1  c #6B1209",
"2  c #7B1302",
"3  c #78170A",
"4  c #671716",
"5  c #741814",
"6  c #710511",
"7  c #7C2317",
"8  c #561E22",
"9  c #6A1E26",
"0  c #5A3737",
"q  c #5D2B36",
"w  c #612A2C",
"e  c #762725",
"r  c #6B3335",
"t  c #6A393A",
"y  c #7B383A",
"u  c #76302D",
"i  c #42413F",
"p  c #7D4438",
"a  c #3C3B41",
"s  c #673842",
"d  c #54514F",
"f  c #6A4949",
"g  c #784546",
"h  c #6C5654",
"j  c #785857",
"k  c #724F4E",
"l  c #766359",
"z  c #63625D",
"x  c #5F6267",
"c  c #796766",
"v  c #757474",
"b  c #850603",
"n  c #8A0302",
"m  c #840C03",
"M  c #8C0B03",
"N  c #840C0B",
"B  c #870708",
"V  c #920C01",
"C  c #940D0A",
"Z  c #980902",
"A  c #851403",
"S  c #8D1503",
"D  c #8C150B",
"F  c #831D0C",
"G  c #8B1B0D",
"H  c #861906",
"J  c #961B0B",
"K  c #981705",
"L  c #871717",
"P  c #951814",
"I  c #A31B07",
"U  c #A01E11",
"Y  c #8B2204",
"T  c #8B240B",
"R  c #9C230C",
"E  c #952907",
"W  c #99340A",
"Q  c #8A2615",
"!  c #9A2814",
"~  c #89371A",
"^  c #993413",
"/  c #A4250D",
"(  c #A72808",
")  c #B12B0A",
"_  c #A8370B",
"`  c #B5370B",
"'  c #A32A13",
"]  c #AC3213",
"[  c #A93A15",
"{  c #B53C12",
"}  c #B83A17",
"|  c #B22A14",
" . c #8A2928",
".. c #943628",
"X. c #893A36",
"o. c #963F33",
"O. c #8F3226",
"+. c #AA3921",
"@. c #AA3125",
"#. c #B7470A",
"$. c #B8550B",
"%. c #AA4914",
"&. c #B74A18",
"*. c #AB5213",
"=. c #BA5719",
"-. c #AC400F",
";. c #BF651E",
":. c #85463D",
">. c #8F432B",
",. c #A64836",
"<. c #B24C2D",
"1. c #BC6827",
"2. c #C3570D",
"3. c #C44818",
"4. c #C25915",
"5. c #CA4F13",
"6. c #CA6919",
"7. c #D76B1E",
"8. c #C97313",
"9. c #C65A25",
"0. c #CD5126",
"q. c #C96827",
"w. c #D26629",
"e. c #CB732E",
"r. c #C87728",
"t. c #D57929",
"y. c #C36733",
"u. c #CB7834",
"i. c #D47E38",
"p. c #D36C3A",
"a. c #E4712E",
"s. c #864649",
"d. c #95494A",
"f. c #9B5348",
"g. c #8A5A57",
"h. c #945455",
"j. c #9B4A53",
"k. c #A9534D",
"l. c #B26759",
"z. c #985B62",
"x. c #876364",
"c. c #946462",
"v. c #986668",
"b. c #8D7471",
"n. c #95797A",
"m. c #936F74",
"M. c #A96765",
"N. c #B56E62",
"B. c #A77677",
"V. c #B87A7F",
"C. c #DA7B43",
"Z. c #7C8777",
"A. c #D28B25",
"S. c #D58C3C",
"D. c #D88637",
"F. c #CF8C34",
"G. c #81827C",
"H. c #D68A48",
"J. c #DC9343",
"K. c #D79447",
"L. c #D28358",
"P. c #DB9657",
"I. c #CB8F46",
"U. c #E2924A",
"Y. c #E19B5D",
"T. c #E98C4D",
"R. c #DBA54C",
"E. c #DBA358",
"W. c #E7A558",
"Q. c #E0B25C",
"!. c #DC9966",
"~. c #C38B7C",
"^. c #E49D6F",
"/. c #DBA865",
"(. c #DCB675",
"). c #E3A767",
"_. c #E3AB75",
"`. c #E5B577",
"'. c #E5B76C",
"]. c #B87C88",
"[. c #9E9997",
"{. c #938E89",
"}. c #A48889",
"|. c #B9878A",
" X c #A99A98",
".X c #B89B9A",
"XX c #AF938F",
"oX c #9CA19D",
"OX c #A9A69E",
"+X c #B3AAA6",
"@X c #BCB5AC",
"#X c #BFB9BA",
"$X c #AEABA2",
"%X c #C69490",
"&X c #D6AA87",
"*X c #E6B889",
"=X c #E8BD93",
"-X c #F0B389",
";X c #C29FA5",
":X c #C6A7A5",
">X c #CBB1AE",
",X c #C9B8B5",
"<X c #D5BAB8",
"1X c #D7ABAB",
"2X c #E2B2B0",
"3X c #ECC68B",
"4X c #E8C898",
"5X c #F5CA9B",
"6X c #F2D59F",
"7X c #D1C7B6",
"8X c #EBC8A4",
"9X c #EED5A6",
"0X c #F4D7AA",
"qX c #FADCBA",
"wX c #ECCDA9",
"eX c #F8E3BB",
"rX c #D5CAC6",
"tX c #D9D3C6",
"yX c #CFCECE",
"uX c #E5DBCD",
"iX c #F7DDC1",
"pX c #E5DBDE",
"aX c #E3D6D5",
"sX c #F0D3CE",
"dX c #FCE5C1",
"fX c #FFECCB",
"gX c #F8E5C8",
"hX c #E9E5DB",
"jX c #FBEDD7",
"kX c #FBF4DA",
"lX c #E8E3CF",
"zX c #E8DDE3",
"xX c #EBE7E5",
"cX c #F4EAE9",
"vX c #F8F5E7",
"bX c #FDF6F5",
"nX c #FDFCF5",
"mX c #F6FEFC",
"MX c #FEFEFE",
"NX c #F8F6F6",
/* pixels */
"MXMXMXMXMXMXMXMXMXMXMXMXMXMXMXMXMXMXMXMXMXMXMXMXMXMXMXMXMXMXMXMXMXMXMXMXMXMXMXMXMXMXMXMXMXMXMXMX",
"MXMXMXMXMXMXMXMXMXMXMXMXMXMXMXMXMXmXmXMXmXNXMXMXMXMXMXMXMXMXMXMXMXMXMXMXMXMXMXMXMXMXMXMXMXMXMXMX",
"MXMXMXMXMXMXMXMXMXMXMXMXMXMXMXMXMXmXMXMXMXMXMXMXMXMXMXMXMXMXMXMXMXMXMXMXMXMXMXMXMXMXMXMXMXMXMXMX",
"MXMXMXMXMXMXMXMXMXMXMXMXMXMXMXMXmXMXMXMXMXbXMXMXMXMXMXMXMXMXMXMXMXMXMXMXMXMXMXMXMXMXMXMXMXMXMXMX",
"MXMXMXMXMXMXMXMXMXMXMXMXMXMXMXMXMXMXMXMXMXMXMXmXMXMXMXMXMXMXMXMXMXMXMXMXMXMXMXMXMXMXMXMXMXMXMXMX",
"MXMXMXMXMXMXMXMXMXMXMXMXMXMXMXMXMXMXMXmXmXMXbXpXyXxXMXMXMXMXMXMXMXMXMXMXMXMXMXMXMXMXMXMXMXMXMXMX",
"MXMXMXMXMXMXMXMXMXMXMXMXMXMXMXNXNXNXcXpX,X.Xn.b.#XxXMXbXNXMXMXMXMXMXMXMXMXMXMXMXMXMXMXMXMXMXMXMX",
"MXMXMXMXMXMXMXMXMXMXMXMXMXMXMXNXzX<X|.x.k f m.hXMXmXMXMXMXMXMXMXMXMXMXMXMXMXMXMXMXMXMXMXMXMXMXMX",
"MXMXMXMXMXMXMXMXMXnXMXMXcX$X X{.V.c.h.y d {.aXzX;XB.c.M.v.n. X,XpXnXmXmXMXMXnXMXMXMXMXMXMXMXMXMX",
"MXMXMXMXMXMXMXMXMXnXzXyXG.h l z.g.g y g x.k.O.Q T ^ W E W Y 3 7 y j @XNXNXMXNXMXMXMXMXMXMXMXMXMX",
"MXMXMXMXMXMXMXMXMXxXn.j f h g.d.y u r o.P W *.#._ E Y T 3 F Q J  . .o.;XMXMXmXMXMXMXMXMXMXMXMXMX",
"MXMXMXMXMXMXMXMXMX,Xh.k f g :.y e 4 T ] 9.=.E Y H N M M M A T Q ! ~ ..d.aXMXMXbXMXMXMXMXMXMXMXMX",
"MXMXMXMXMXMXMXMXbXB.:.i y X.u  .5 J ;.q._ / / Z V M S A m M b B G ..<.N.XXNXmXnXMXMXMXMXMXMXMXMX",
"MXMXMXMXMXMXMXMXtXf.y 0 s Q L < E p.1.*._ ( [ 1.i.S.S.e.q.*.W H , B  .N.2XbXMXMXMXMXMXMXMXMXMXMX",
"MXMXMXMXMXMXMXMX%Xo.e w 5 P N 2 6.D.;._ &.P.'.W.J.D.e.e.e.i.t.2.' H < P %XNXmXMXMXMXMXMXMXMXMXMX",
"MXMXMXMXMXMXMXMXN.@.w 8 U J - 9.I.e.#.u.3X`.K.u.u.q.q.3.} _ %.y.q._ Q 2  .sXMXMXMXMXMXMXMXMXMXMX",
"MXmXMXMXMXmXmXcXk.Q = 1 R m W S.F.$.L.4X).P./.`.`.(./.J.S.6.` I %.q._ R , h.MXMXMXbXmXMXMXMXMXMX",
"MXnXMXMXMXmXMXaX,.3 = 3 R : u.J.u.C.5X_.(.6XdXfXjXfX0X3X/.U.S.$.K ! 1.E / 2 .XmXMXMXmXMXMXMXMXMX",
"MXMXnXNXMXMXhX>X} 3 & H K S U.S.e.-X=X3XdX7X[.v Z.+XuX0X0X`.I.A.2.K E ;.G S 7 xXmXMXMXMXmXMXMXMX",
"MXMXMXMXMXMXXXj } 3 * J M +.S.K.P.9X4XgXoX#       O z 7X4X-X`.D.A.2.b R =.< J B.MXmXMXMXnXMXMXMX",
"MXmXMXMXMXMXXXf } G - J C <.R.K.*X0XeXOXo O     X     d lX=X).Y.A.A.` : #.~ > ~ hXMXMXMXMXMXMXMX",
"MXMXMXMXMXNX}.r } ! - / K 9.Q.K.8XqXuXi         X     . {.kX!.J.S.A.2.S < *.1 m 1XMXMXMXMXMXMXMX",
"MXMXMXMXMXcX}.r [ ` ; J Z y./.P.8XvX@Xo             . . d xXwXp.S.8.8.( : _ 7 , l.MXmXMXNXMXMXMX",
"MXNXMXMXMXNX}.t ! 5.; J I 1.`.Y.wXkX[.      .         X $ hXdXL.q.r.6.{ m D %.* ..vXmXMXnXMXmXMX",
"MXMXMXMXMXMX.XX.7 5.S D ( %.`.).9XvXOX.     X   X   X   $ hXgX!.3.w.8.$.C < -.1 3 sXmXmXMXMXMXMX",
"MXMXMXMXmXMX>Xs.5 4.] : ) #.).&X3XkXyX@                 z vXqX_.{ q.$.2.C , W 7 - <XMXMXMXmXMXMX",
"MXMXMXMXmXMX,Xg.w ' 7.> K #.F.(._.lXmXx               O +XvXwX!.` 4.=.6.C 2 Y 3 * :XMXbXMXMXMXMX",
"MXmXMXMXMXMX>Xc.y 1 t._ Z ] q.E.-X8XgXlXi   X         {.jXiX4XY.` #.3.$.C 3 A 3 - :XMXMXbXMXMXMX",
"MXMXMXMXMXMX Xx.f.4 ^ a.B K 2.S.).(.eXjXtXx # o o 0 oXlXdX0X_.i.( 3.` #.B H H 2 & <XMXMXMXMXMXMX",
"MXMXMXMXMXMX[.j g.y - q.4.M I 6.R.Q.&X8XjXjX7X@X#XpXkXqX5X_.P.9.K 3.` -.b Q D * t bXMXMXMXMXMXMX",
"MXMXMXMXMXMX Xh f g e , w.0.V ( 6.W.'.*X4X6XeXgXfXeX5X*X_.I.T./ ( { ` ^ N O.H * b.MXNXMXnXmXMXMX",
"MXMXMXMXMXMX+Xl f t O.L D 0.0.K ( ;.F.W.`.-X*X4X3X`.).Y.H.U.#.Z } ( { H L ,.L & +XMXmXMXMXMXMXMX",
"MXMXMXMXnXMX7Xx.k i 0 e D K } a.} ] ` 9.t.D.U.H.K.T.T.i.D.5.Z J | I [ A k.l.7 w xXNXMXMXMXMXMXMX",
"MXMXMXMXMXMXzX}.h.:.r q 9 J Z J 3.w.w.w.w.e.t.D.D.H.e.A.&.C V [ K _ T L 1X,Xs.}.mXmXMXMXMXMXMXMX",
"MXMXMXMXMXMXMXcX|.h.o.u 8 = H I I | ` 0.q.q.w.9.w.7.w.] V n ' S K [ ; ;XmXNXaXcXMXMXMXMXMXMXMXMX",
"mXMXMXMXMXNXMXMXnX>Xk.+.Q 5 & * A J / ) ` 3.3.5.3._ Z M N ! S b ` > ].MXNXMXMXnXMXMXMXMXMXMXMXMX",
"MXMXMXMXMXMXMXNXnXMXxX%X,.! ' L L 2 D R / / / D D m D b J N : ' H c.MXbXMXnXMXMXMXMXMXMXMXMXMXMX",
"MXMXMXMXMXMXMXMXMXMXNXmXpX%X<.[ ) | { ` ` [ [ ^ T 3 B S - 6 I 2 c.MXbXMXMXMXmXMXMXMXMXMXMXMXMXMX",
"MXMXMXNXMXMXbXMXMXMXbXMXMXmXNXrX~.l.,.<.~ ~ 7 4 3 b ; % 6 n H V.nXMXmXMXMXMXMXMXMXMXMXMXMXMXMXMX",
"MXMXMXMXMXMXMXMXMXMXMXMXMXmXMXMXMXMXMXpXm.d. .5 & & - < 2 >.>XMXMXnXMXMXnXMXmXMXMXMXMXMXMXMXMXMX",
"MXMXMXMXMXMXMXMXMXMXMXMXMXMXMXMXMXzX.Xj w = + + * 1 <  .%XcXMXMXMXMXMXMXMXMXMXMXMXMXMXMXMXMXMXMX",
"MXMXMXMXMXMXMXMXMXMXMXMXMXMXMXMXbX@Xc f g s X.j.j.M.%XsXbXmXNXMXMXMXMXMXMXMXMXMXMXMXMXMXMXMXMXMX",
"MXMXMXMXMXMXMXMXMXMXMXMXMXMXMXMXMXMXMXmXMXnXnXbXbXMXMXMXMXMXMXmXMXMXMXMXMXMXMXMXMXMXMXMXMXMXMXMX",
"MXMXMXMXMXMXMXMXMXMXMXMXMXMXMXMXMXMXMXMXMXMXmXmXMXmXmXmXmXMXMXMXMXMXMXMXMXMXMXMXMXMXMXMXMXMXMXMX",
"MXMXMXMXMXMXMXMXMXMXMXMXMXMXMXMXMXMXMXMXNXMXMXbXmXMXMXMXnXMXMXMXMXMXMXMXMXMXMXMXMXMXMXMXMXMXMXMX",
"MXMXMXMXMXMXMXMXMXMXMXMXMXMXMXMXbXMXMXmXMXMXMXMXMXnXmXMXMXMXMXMXMXMXMXMXMXMXMXMXMXMXMXMXMXMXMXMX",
"MXMXMXMXMXMXMXMXMXMXMXMXMXMXMXMXMXMXMXMXMXMXMXMXMXMXMXMXMXMXmXmXMXMXMXMXMXMXMXMXMXMXMXMXMXMXMXMX",
"MXMXMXMXMXMXMXMXMXMXMXMXMXMXMXMXmXMXMXMXMXMXMXMXmXMXMXMXMXMXMXMXMXMXMXMXMXMXMXMXMXMXMXMXMXMXMXMX"
};
