/* XPM */
static char *apf1s_0qe2f[] = {
/* columns rows colors chars-per-pixel */
"48 48 251 2 ",
"   c #020304",
".  c #05060B",
"X  c #08070B",
"o  c #06090D",
"O  c #090A0C",
"+  c #080707",
"@  c #040712",
"#  c #050A14",
"$  c #0B0B14",
"%  c #00061C",
"&  c #040C1C",
"*  c #0B0D1B",
"=  c #080713",
"-  c #130E19",
";  c #04111D",
":  c #0B111D",
">  c #13121C",
",  c #161317",
"<  c #3B1C03",
"1  c #391908",
"2  c #21181D",
"3  c #3B2206",
"4  c #2C231D",
"5  c #3A2A1A",
"6  c #000121",
"7  c #030D22",
"8  c #080E20",
"9  c #010E29",
"0  c #0B0D29",
"q  c #041224",
"w  c #0A1224",
"e  c #03132B",
"r  c #0B142B",
"t  c #0C192B",
"y  c #121223",
"u  c #11162A",
"i  c #131929",
"p  c #021534",
"a  c #0A1731",
"s  c #031A36",
"d  c #0C1932",
"f  c #01153A",
"g  c #021C3B",
"h  c #0C1C3B",
"j  c #121A33",
"k  c #111A37",
"l  c #0D0E28",
"z  c #221525",
"x  c #04223E",
"c  c #0B2438",
"v  c #132D3D",
"b  c #15233A",
"n  c #13252C",
"m  c #282628",
"M  c #382925",
"N  c #3C3327",
"B  c #373434",
"V  c #2A2B34",
"C  c #411B07",
"Z  c #422505",
"A  c #4B2504",
"S  c #4A2B06",
"D  c #42230B",
"F  c #4A2D0A",
"G  c #452808",
"H  c #522C0A",
"J  c #582A07",
"K  c #4D3208",
"L  c #583509",
"P  c #512E10",
"I  c #583814",
"U  c #4D2810",
"Y  c #6A390B",
"T  c #783D07",
"R  c #683C15",
"E  c #6C3509",
"W  c #543726",
"Q  c #623C2A",
"!  c #5E4717",
"~  c #7A480D",
"^  c #694417",
"/  c #754A14",
"(  c #7B5417",
")  c #6C480A",
"_  c #584C31",
"`  c #775224",
"'  c #6C4A26",
"]  c #031E44",
"[  c #001847",
"{  c #002046",
"}  c #0D2A42",
"|  c #012249",
" . c #0F2545",
".. c #142343",
"X. c #192543",
"o. c #193546",
"O. c #193653",
"+. c #0A2B50",
"@. c #233746",
"#. c #323A4D",
"$. c #203D61",
"%. c #1D3963",
"&. c #274358",
"*. c #36495B",
"=. c #3B4A65",
"-. c #31516A",
";. c #3C637D",
":. c #454C5E",
">. c #51504E",
",. c #434E63",
"<. c #4A5463",
"1. c #526379",
"2. c #6D6564",
"3. c #6C6059",
"4. c #813F0C",
"5. c #8C4C0D",
"6. c #84480A",
"7. c #8C5109",
"8. c #965303",
"9. c #94550D",
"0. c #9B550B",
"q. c #9B5B0E",
"w. c #985708",
"e. c #874B12",
"r. c #875617",
"t. c #915311",
"y. c #9B5B14",
"u. c #965A19",
"i. c #984E09",
"p. c #A25E0B",
"a. c #A25A09",
"s. c #A35E13",
"d. c #B05A05",
"f. c #8B641A",
"g. c #9A6413",
"h. c #986618",
"j. c #9C6C10",
"k. c #A4620B",
"l. c #AA640B",
"z. c #AA6708",
"x. c #B66A08",
"c. c #BC720D",
"v. c #B9750B",
"b. c #A46A16",
"n. c #AB6C13",
"m. c #A46B1A",
"M. c #A86718",
"N. c #B26B13",
"B. c #B96C13",
"V. c #A97518",
"C. c #B47315",
"Z. c #B4731A",
"A. c #BA7818",
"S. c #895926",
"D. c #935825",
"F. c #9A6423",
"G. c #996926",
"H. c #93702E",
"J. c #B66D23",
"K. c #A87724",
"L. c #B57824",
"P. c #A56D2E",
"I. c #C37A0C",
"U. c #CA7D0D",
"Y. c #C47509",
"T. c #C47C13",
"R. c #C37E1C",
"E. c #CB7C1C",
"W. c #C87815",
"Q. c #CB770D",
"!. c #C77C24",
"~. c #8A6D4C",
"^. c #BB841A",
"/. c #BB800A",
"(. c #BA8726",
"). c #B58A39",
"_. c #AF8226",
"`. c #9C8336",
"'. c #CA870C",
"]. c #D3840A",
"[. c #D8880B",
"{. c #DF920D",
"}. c #C4841C",
"|. c #CC8C1C",
" X c #C78519",
".X c #D48513",
"XX c #D38C1C",
"oX c #D88816",
"OX c #CB9219",
"+X c #D89619",
"@X c #CC940E",
"#X c #E69808",
"$X c #F39B0A",
"%X c #E38A18",
"&X c #E39414",
"*X c #E59B1B",
"=X c #EB9C1B",
"-X c #E79816",
";X c #F29B17",
":X c #E18E0B",
">X c #DFA215",
",X c #EBA409",
"<X c #F6A90B",
"1X c #FDB90B",
"2X c #FCB505",
"3X c #E9A619",
"4X c #F4A513",
"5X c #F7A817",
"6X c #FAB41C",
"7X c #F7B517",
"8X c #C78625",
"9X c #D48C23",
"0X c #D68928",
"qX c #CA9428",
"wX c #DD9323",
"eX c #D69827",
"rX c #C99C3B",
"tX c #CF8E38",
"yX c #E39A23",
"uX c #E59826",
"iX c #D6A832",
"pX c #E8A826",
"aX c #F5A925",
"sX c #FCBB23",
"dX c #FCBC2B",
"fX c #F6B625",
"gX c #EFB62D",
"hX c #FEC70C",
"jX c #FECA1C",
"kX c #FCC319",
"lX c #FDCB2A",
"zX c #F9C426",
"xX c #FFD22B",
"cX c #FBC835",
"vX c #FCD33B",
"bX c #FFDA3E",
"nX c #FAD435",
"mX c #EEC23C",
"MX c #AE9053",
"NX c #CA9B54",
"BX c #DAB34F",
"VX c #E1B343",
"CX c #FAD954",
"ZX c #F1C74C",
"AX c #FEE145",
"SX c #FFE457",
"DX c #F8D96B",
"FX c #FEE56A",
"GX c #FAE976",
"HX c #FFF07D",
"JX c #FDEB90",
/* pixels */
"8 r r q q 7 7 q r r w w r i y > y > > $ O $ : w w : * # = $ * 8 8 * * 8 & & #                   ",
"8 r r q 7 7 7 q r r w r i i y - > > > y 8 & 7 7 7 9 0 & $ * 9 & 8 8 8 8 & & #                   ",
"8 w r 8 8 q q q e r w r u i w - y w w y z 4 F 5 M 4 , & & ; : 8 8 w w 8 * & #                   ",
"8 r r 8 w w q q e r r i i u > $ $ 2 Q F.A.E.W.E.E.A.h.` M $ & w w w w w 8 & @                   ",
"w w w w r w q q e e r t i r & z ^ R.3XaX;X5XY.E.+X&X:XoXA.r.4 % ; w q q 8 & =                   ",
"w : w r r q q q e e t j i 0 M P.uX5X4X-Xx.:Xc.x.].[..X-XU.E.A.Q 9 r w : ; & =       . . . . . . ",
"w : w r r e q e r r j i l W 0XyX.X[.{.-XeX+X3X-X:X-X].&X X8X].%XS.: y w ; & = .     . . . o o . ",
"> * w r r r e r a d d 0 ^ uX5XW.x.+XvXzXAX6X1X,X&X*XoXuXW.}.uXB.E.u.7 q w & = . + + $ . O $ = o ",
"> > y r r r e a j j r I uX4XU.U.3X7XAXzXzX7X4X#X:XU.U.E.E.*XC.u.C.;X` % w & = . + + O + O * $ = ",
"y - r d a e e w i j N eX=XI.+X3XzX7XzXlXkX<X;X,X[.x.[.c.x.W..XoXZXaX-XN 7 * # o +       $ * $ $ ",
"w * r d a e r r j z 8XaXN.R.dXyX=X4X7XvXnX6X<X$X&XE.yXM.N.x.I.oX}.wXoXXX> & # # . .     + O = $ ",
"* * r a a a e w * S.9X X.XXXuXuX=X-X<XkXxXvXnXC.6.:X&X Xc.N.z.w..X|.F.I.` 6 * # = X X       O $ ",
"> w r r e r q 9 M 0XH ~ sXeXtXuX&X4X3Xj.+X7X3XR ~ ;Xn.n.oXl.M.0.T. Xm.v. Xy & & # O O . X   . $ ",
"> : r r e e q q F.uXr.g.wX8X0X9XyX5X>XL A w.C.G C.&XL Y %XB.l.l.8.V.n.^.].! % * # .   o =   . $ ",
": $ w r p q 7 m J.g.aX3XL.!.8XwX*X=XfX3Xf.D S S @X8X< A.].I.N.l.q.k.qXA.T.V.% * #     o @ X . * ",
"* = 8 r e q 7 ` %XA.}.9XR.!.0X*XuXuX|.3Xb.G G 3 J Y L pXL.z.A.y.y.e.m.A./.'.m % =   . # $ . o * ",
"# = & e e 9 p A.'.A.8XJ.R.!.eX8XJ.e.h.gXL 3 F V.( 3 F j.f.e.N.b.g.t.s.|.G.v.^ 6 = . @ # = . # @ ",
"# = & q q 7 M +Xh.^.+XM.K.L.g.~ ~ ~ g.K.D 3 ^ 8X+XV.G 1 ) f.y.g.r.^.5.H.! m.f.6 # # # % o . # = ",
"% o # 7 q 9 ' oXn.h.m.M.r.^ 6.t.A.}.Z.^ D Z f.(.(.C.) D 1 / r.r.m.F.R q.f.G.K.9 q & & & o . # # ",
"& = # & e f f.@X}.8Xr.h./ / y.u.+XqXG.K 3 I G.L.V.V.( F K L r.r.L.r.Y }._.S.(.i q w & & O . # # ",
"q # # 7 p s V.r.f.^.r.r.f.G.r.h.eXK.` G Z ^ rXF.h.P.( S H L ~ M.L.T ~ D.r.T (.4 7 w & & O o @ @ ",
"e & & e f b V.R ^ r.( ( S.S.r.8XqXG.I P U C ^ m.NXMXH L A R m.|.y.e.~ k.g.Z.OXN 7 * & = X = # # ",
"e 8 0 a f V V.S.K.m./ r.u.P.P.pX8XF.S D / f.< 1 ! F H A L _.qX}.9.5.4.A.eXZ.qXN % * : o X # * * ",
"e e a s f V v.m.G.F.5.e.b.qXF.L.L.^ Z A h.Z.^./ < S A ( ).(.eXi.q.t.q.F.tXY.qXN 7 ; * + O * * # ",
"e e p p f B '.C.t.u.t.5.|.N.Z.A.qXP F Y m.|.v.OX/ Z Z (.e.qXA.a.s.t.e.^.R.U.eXN 7 & *   = * # @ ",
"e e p p f B +Xn. X^.e.C.A.(.f.V.G.S S F.Z.eXgX9Xv.S G J A.mXM.p.q.t.E pXV.v.iXm 7 8 * + @ o @ # ",
"e e p p f B [.B.V.).9. XR.8X1 1 H S L eXR.B.m.iX}.L S D C.}.u.5.4.5.v.*XY R iXi 7 0 $ + @ o . . ",
"p p p s f V '.OXV.n.M.eX0. Xj.L 3 S L 3XOXB.8Xm.!.L K Z q.6.E T k.R.I.z.w.V.rXp q q # o @ X . . ",
"p p p s p b ^. XqX3Xp.n.0.t.c.XX~ < C L C.&XcXFXj.3 K H T.0.z.c.c.Y.XXpXx.3XH.9 w q # # @ + $ . ",
"p p p p s f K.&X+XrXs.8.9.t.p.sXG.I b.S Z ) V.H.J L D u.E.,X6XoXW.B.3XxXY.fX_ p r 7 % & = + O   ",
"p p p s s [ H.#XVX^.'.5.9.7.n.cXL Z.aXh.3 A 1 < F A T XX9XgXlXz.T.oXcX3XY.mX@.a d 7 % & =       ",
"p p p s s f >.,XZXeXgX9.9.e.n.8XL yX+X/ y.&Xl.q.g.^.fXpXzXfX7X[.oX[.sX].pXMXh e j r & 7 .       ",
"s s s s g s O.+X*XI.+X'.7.e.n.*X|.wX}.J yXsX#X$XzXHXcXgXcXfX{.-XoXx.Y.U.bX3.s e d e 7 ; o       ",
"s s s s g s | `.<XZX9XkXM.6.7.wXdX=X|.q.pX3XdXgXCXcX4X3XuXV.e.9.z.x.d.7XBX@.e e r e 7 & # @ .   ",
"s s s g g g ] <.6XcXpXmX+X8.5.N.aXaXuX6X.XU.fXSXGX6X5X3XT T 9.q.9.q.].bX~.+.e e r e 7 7 & % . . ",
"s s g g g x g %.).6XgX8X*X3X5.8.*XXXz.+Xc.B.].cXHXCXcXvXC.Z.XXeX6.8.lXBX=. .a e e e q 7 & % @ @ ",
"s g s g g g s +.2.lXlX!.v.lX'.s.8.q.w.p.x.c.oX5XFXJXCXgX=XyXaXT.a.3XvX2.$.b j q e e e 7 & % # # ",
"g g g g ] g g g -.).jX3X!.}.3X7Xz.w.w.k.x.I.oX5XCXGXcX;XfXdXwXE.pXbXMX-. .X.a 9 e e e 7 & 7 & & ",
"] ] ] ] ] ] ] f +.<.qXhXfXR.A.fXwX*Xx.U.Y.Y..X3XFXDXDXnXfXpX+XdXvXNX1.-.h X.a e e e e 7 & & & % ",
"] ] ] ] ] ] ] ] x -.3.eXhX7XR.J.R.fX*X7X#X#X7XaXJXDXJXCXoX{.kXxXBX1.;. .X...a e e e e 9 7 & & % ",
"] ] ] ] ] ] ] ] g } -.>.wXhX7X&Xk.s.W.4X4X<XkX4XJXZXpXaX<X1XjXiX2.;.O.h X.s e e e e e 9 7 & & & ",
"{ ] ] ] ] ] ] ] ] s O.-.>.9X1XhX,XQ.Y.Y.[.-X].-XcXlX#X1XhX1X(.>.;.O.g X.h p p e e e e 9 e q 7 7 ",
"{ { { ] ] ] ] { { ] g O.*.>.G.<X1X2X,X#X,X<X#X1XjXlX<X2X,X~.#.-.&.g ....p p p e e e e e e e 7 7 ",
"{ { { { ] ] { { ] { ] ] o.&.V Q J.&X$X$X<X<X<X5X<X$X.XF._ *.*.o.] h h s p p p p p e e e e e 7 7 ",
"{ { { { ] { { { { { ] ] ] v @.o.V W ^ r.k.x.N.s.r._ B @.#.&.} s h h s s p p p p p e e e e e 9 9 ",
"{ { { ] ] { { { { { { { { ] { v o.v c t y i n n v o.o.@.v x p h h s p p p p f p p p e e e e 7 9 ",
"{ { | ] ] | { { { { { { { { ] g x } } c c v v v o.v c s s s b ..g x ..h ....h d h h k b d r j r ",
"{ { | ] { | { | { { { { { { { { { { { g g x x x x g s s b X.X.h g } *.=.=.,.*.*.,.:.:.<.,.#.:.#."
};
