/* XPM */
static char *fddd14cce92f4e9d8af2f3e7273fa21bL0U3yzEaMo5010CA[] = {
/* columns rows colors chars-per-pixel */
"48 48 228 2 ",
"   c #FEFEFE",
".  c #030204",
"X  c #0D0404",
"o  c #0D0905",
"O  c #03040D",
"+  c #090509",
"@  c #0D0A0C",
"#  c #060A0F",
"$  c #140301",
"%  c #1B0201",
"&  c #130C06",
"*  c #180C05",
"=  c #160E08",
"-  c #1A0D09",
";  c #120609",
":  c #1B1209",
">  c #181008",
",  c #030314",
"<  c #060A16",
"1  c #180B19",
"2  c #141215",
"3  c #2C0101",
"4  c #240C04",
"5  c #25050B",
"6  c #3A0504",
"7  c #22150B",
"8  c #2A160B",
"9  c #25190D",
"0  c #2B1C0D",
"q  c #241003",
"w  c #331C0D",
"e  c #3B1C0B",
"r  c #38120C",
"t  c #211B12",
"y  c #2A1D11",
"u  c #381713",
"i  c #1E201F",
"p  c #3B210E",
"a  c #35200F",
"s  c #2E2112",
"d  c #2B271C",
"f  c #342413",
"g  c #3B2512",
"h  c #362916",
"j  c #3D2B15",
"k  c #3D2D1A",
"l  c #34291D",
"z  c #3C301D",
"x  c #070B27",
"c  c #061427",
"v  c #1B1C2B",
"b  c #081B33",
"n  c #000036",
"m  c #331729",
"M  c #1A2639",
"N  c #272739",
"B  c #342835",
"V  c #332E2B",
"C  c #420405",
"Z  c #590704",
"A  c #451A07",
"S  c #501A0F",
"D  c #580F14",
"F  c #4D1116",
"G  c #6E0303",
"H  c #790201",
"J  c #711113",
"K  c #44230D",
"L  c #4B250E",
"P  c #4E280F",
"I  c #422612",
"U  c #442B15",
"Y  c #4B2C14",
"T  c #422E18",
"R  c #4A2819",
"E  c #522C16",
"W  c #44321B",
"Q  c #4B351D",
"!  c #4D381F",
"~  c #4A3117",
"^  c #53341A",
"/  c #52391E",
"(  c #59391C",
")  c #502007",
"_  c #672618",
"`  c #663618",
"'  c #460E23",
"]  c #691F35",
"[  c #412C25",
"{  c #4B3521",
"}  c #4C3B23",
"|  c #423320",
" . c #533C22",
".. c #5C3D22",
"X. c #553723",
"o. c #472A3D",
"O. c #553B39",
"+. c #592D2D",
"@. c #69352E",
"#. c #3F4337",
"$. c #554126",
"%. c #5A4326",
"&. c #54442B",
"*. c #5A452A",
"=. c #5D4A2C",
"-. c #57482F",
";. c #4C4338",
":. c #5D4C33",
">. c #554634",
",. c #5E5036",
"<. c #5F5038",
"1. c #4C432C",
"2. c #624C2E",
"3. c #634527",
"4. c #794E2D",
"5. c #624E32",
"6. c #6A4E36",
"7. c #645134",
"8. c #6A5533",
"9. c #6E5936",
"0. c #645439",
"q. c #69563A",
"w. c #6D5A3B",
"e. c #725535",
"r. c #725D3B",
"t. c #765B39",
"y. c #73522F",
"u. c #75613D",
"i. c #79633E",
"p. c #00104F",
"a. c #001656",
"s. c #0E1249",
"d. c #0E224A",
"f. c #343144",
"g. c #000A67",
"h. c #001D69",
"j. c #193865",
"k. c #15306C",
"l. c #313D69",
"z. c #541843",
"x. c #502346",
"c. c #6F365C",
"v. c #2B4556",
"b. c #305056",
"n. c #1C4C70",
"m. c #224867",
"M. c #26547B",
"N. c #314E68",
"B. c #35667F",
"V. c #454941",
"C. c #524B4F",
"Z. c #745E40",
"A. c #6B564F",
"S. c #5B645F",
"D. c #7B6541",
"F. c #7E6943",
"G. c #766546",
"H. c #716C48",
"J. c #48576A",
"K. c #715667",
"L. c #476A74",
"P. c #5C737B",
"I. c #4F6E6D",
"U. c #727568",
"Y. c #777378",
"T. c #6F6D70",
"R. c #8B0507",
"E. c #960205",
"W. c #940C12",
"Q. c #951B26",
"!. c #813536",
"~. c #A42E37",
"^. c #8E4E3D",
"/. c #A0473D",
"(. c #8A7F24",
"). c #962A44",
"_. c #915551",
"`. c #826B45",
"'. c #876B4A",
"]. c #80714F",
"[. c #877451",
"{. c #986950",
"}. c #AA6154",
"|. c #97746A",
" X c #986969",
".X c #A86A65",
"XX c #7B8878",
"oX c #8A8530",
"OX c #939474",
"+X c #AD9C71",
"@X c #A3A67A",
"#X c #011C96",
"$X c #002994",
"%X c #003199",
"&X c #022CA9",
"*X c #013AA3",
"=X c #0238BF",
"-X c #1B4B8A",
";X c #114694",
":X c #33578C",
">X c #336F95",
",X c #0244A6",
"<X c #0347B4",
"1X c #1D40A1",
"2X c #1E75AC",
"3X c #2964AF",
"4X c #576C88",
"5X c #7F7883",
"6X c #025ED9",
"7X c #0A68C2",
"8X c #0565D1",
"9X c #3F95B9",
"0X c #4D9593",
"qX c #668489",
"wX c #729494",
"eX c #5894B5",
"rX c #689FAC",
"tX c #6FA9B0",
"yX c #269FD2",
"uX c #4FBAD0",
"iX c #72D5DD",
"pX c #8D9792",
"aX c #92AD9F",
"sX c #86A9A7",
"dX c #8AB4B3",
"fX c #97BAA9",
"gX c #8EC2B9",
"hX c #91C7C5",
/* pixels */
"                                                                                                ",
"                                                                                                ",
"                                                                                                ",
"                                                                                                ",
"                                                                                                ",
"                                          F.G.w.w.q.w.w.r.r.                                    ",
"                                    `.w.0.<.<.<.0.<.:.,.0.5.6.q.e.                              ",
"                                '.w.<.0.0.q.w.Z.r.w.,.q.0.:.=.-.:.8.6.                          ",
"                              Z.w.,.q.u.`.`.`.i.q.w.q.D.D.i.r.:.=.-.=.7.                        ",
"                          ].w.q.-.r.`.[.`.F.i.0.:.r.D.r.r.i.i.i.9.$.-.=.2.                      ",
"                        '.q.,.-.,.H.`.i.i.`.u.w.r.u.w.0.7.7.9.w.r.9.$.-.*.2.                    ",
"                      '.w.0.1.,.i.`.i.u.u.i.^.'.{.}.^.6.:.*.7.7.7.8.=.! %.3.%.                  ",
"                    [.q.q.q.q.<.i.u.r.r.-.9.{.}..X.X~.~.A.-.2.*.&.-.1.=.$...3.X.                ",
"                    w.q.w.F.w.q.F.r.8.,.} _./. X X_.!.E.).K.<. .&.W ! =.%.}  .3.                ",
"                  G.q.q.G.w.r.u.i.i.7.! I r r +._._.J E.E.c.J.2.=.1.$.$.%.$.! .. .              ",
"                  q.q.r.q.0.-.u.F.[.H.*.% % - { F D Q.W.H J >X#.W W $.$.$.$.Q ^ 3.              ",
"                u.q.w.u.,.:.0.H.aXdXdXsX;.R U.@XH.l u c.D Z N.v.~ ! ! $.$.! W ! %.~             ",
"                0.,.u.7.=.,.q.XXdXdXhXtXwX|.rX@XrXXXm f.M 3 B >X1.z W Q  .z s ~ ( (             ",
"              D.0.w.u.9.r.u.1.U.qXdXsXqXfXgXtX@X3XP. X5XN $ 5 -XV z Q Q Q j 9 h ^ 3.            ",
"              w.0.u.u.u.u.-.1.w.pXsXI.OX+XpXuXrX:XY.[.Y.v - O.f.d j h ! Q h 0 s ~ %.g           ",
"              0.0.u.u.u.9.1.8.=.C.;._ @.^.>.:Xm.;.O.l B x N.T.B.d W W j Q W h h U ( U           ",
"            `.0.q.u.9.9.7.=.r.=.1.r R.Z & + < + $ ; N.>Xn.4X5XV.t j ! ! W j f : U ( W           ",
"            D.7.9.u.8.9.2.8.9.8.W k Z H E : . O b M J.>Xb.Y.A.2 9 W W j j s 0 > U ( U           ",
"            w.7.9.r.8.9.=.7.9.2.$.W U G J ..o < b v v m ' m < = f h j h h 0 9 > U ( U           ",
"            w.7.w.r.8.8.=.=.9.8.7.=.$.S G o.{ y 2 x x C D z.l.l h z j z f 0 9 > I ( U           ",
"            q.0.8.9.7.8.2.%.8.=.=.%.W f o.;X+.) 1 %Xk.C ; 3 o.J.h W ! } j 0 7 > Y ( f           ",
"            e.6.8.9.2.7.8.} 7.2./ W W 1.I.-Xx.] C.L.x.z.c C +.eX0X#.W Q f 9 > 7 Y ( 0           ",
"            9.6.2.8.8.8.8. .3.3./ k } H.oX-X<X<XI.(.l.*Xd.V.N.eXiXuXb.h 9 0 > 0 Y ^             ",
"            t.6.2.9.2.=...4.^.X.V z ;.M.n.,X<X=X%Xj.&X6Xk.t J.P.rXyXn.9 0 9 ; p E Y             ",
"              :.2.9.=.$.( ` P R m.v.2X7X<X*X%X%X$X#X#X=X8XN { S.v.d.< s 0 > > L ^ e             ",
"              5.2.2.=.$.Y I 4 5 j.M.;X8X*Xh.a.a.s.p.p.g.#Xf.` u O . > g 0 o 0 P ^ 7             ",
"              6.2.%.8.%.0 q ; + v j.k.&Xg., , # O O . . , R ` r b # 7 7 > & I E g               ",
"              i.*.2.2.e.! 4 * @ @ d.s.n , o y f h s : o % ) A 3 < # o = = w L Y 9               ",
"                *.2.*.=. .f & X # c < o y W  .} / Q j g 8 A C % + . : : 0 K E g                 ",
"                t...*.*.} Q w $ @ c O y *.=.} W k h h j 0 q * X . = y 0 I L R 7                 ",
"                  2.*. .%.} Q 0 . . > W | ! k z k h 0 g g 9 & o & 9 f g K I 8                   ",
"                     .%.$./ W k s : z Q s y 9 0 9 : f j T j 0 : s f g K L 0 -                   ",
"                    t.X.$.!  .W W $.8. .$.{ W W k ! W ! T j 9 : 9 p A K w -                     ",
"                      e.} / / ! / $.$.2.=.} } { k W f f 0 : : 0 p K K 8 -                       ",
"                        e./ Q ! Q f 0 f s k h h s s 0 & & : w p K e 7 *                         ",
"                            ..Y ~ ~ U f 9 7 9 : > * 7 0 w p e e w -                             ",
"                              3.~ I I I K I p w p p p e e e r 7 X                               ",
"                                    Y I g e e e e e e e e 8                                     ",
"                                                                                                ",
"                                                                                                ",
"                                                                                                ",
"                                                                                                ",
"                                                                                                "
};
