/* XPM */
static char *_45aed625dd74ea6db9df0f6a37813abdkeYB2zAsTQjf5Wy[] = {
/* columns rows colors chars-per-pixel */
"48 48 242 2 ",
"   c #020201",
".  c #0B0604",
"X  c #0D0906",
"o  c #01060A",
"O  c #04090C",
"+  c #0B0C0C",
"@  c #020805",
"#  c #110A06",
"$  c #130E0B",
"%  c #180C07",
"&  c #15110D",
"*  c #1A120E",
"=  c #010D14",
"-  c #090E11",
";  c #041114",
":  c #04151C",
">  c #0A161B",
",  c #0B1617",
"<  c #131413",
"1  c #1C1511",
"2  c #151B1A",
"3  c #0E100F",
"4  c #24150E",
"5  c #241913",
"6  c #2B1B13",
"7  c #241D19",
"8  c #291E18",
"9  c #331D16",
"0  c #0D2F19",
"q  c #29211C",
"w  c #37251A",
"e  c #111C23",
"r  c #051821",
"t  c #0D2728",
"y  c #16262B",
"u  c #092C35",
"i  c #1C2B33",
"p  c #152E34",
"a  c #123335",
"s  c #163739",
"d  c #123927",
"f  c #282826",
"g  c #382C24",
"h  c #3A322A",
"j  c #202E38",
"k  c #243339",
"l  c #363635",
"z  c #482C1C",
"x  c #473529",
"c  c #533A28",
"v  c #4A3D34",
"b  c #550C08",
"n  c #154434",
"m  c #584534",
"M  c #584634",
"N  c #69533A",
"B  c #73563E",
"V  c #644A36",
"C  c #073748",
"Z  c #1A3A41",
"A  c #093E51",
"S  c #2A3A45",
"D  c #2A3A46",
"F  c #313D44",
"G  c #1A4646",
"H  c #19524A",
"J  c #08465A",
"K  c #195256",
"L  c #224A4D",
"P  c #29464B",
"I  c #32424C",
"U  c #3C474C",
"Y  c #244D51",
"T  c #245256",
"R  c #3C5355",
"E  c #09546B",
"W  c #185864",
"Q  c #075A74",
"!  c #155D72",
"~  c #074D62",
"^  c #295A69",
"/  c #375C6A",
"(  c #235E73",
")  c #0A637C",
"_  c #166579",
"`  c #176369",
"'  c #2A6175",
"]  c #346275",
"[  c #3A6E77",
"{  c #4C4C4B",
"}  c #464544",
"|  c #514E4C",
" . c #56524C",
".. c #454D52",
"X. c #4B545A",
"o. c #455156",
"O. c #545453",
"+. c #585656",
"@. c #5A5857",
"#. c #5D5C5B",
"$. c #545859",
"%. c #685646",
"&. c #765944",
"*. c #615F5E",
"=. c #6D5F55",
"-. c #7B6448",
";. c #63605E",
":. c #6F6056",
">. c #756559",
",. c #595D64",
"<. c #50696C",
"1. c #646363",
"2. c #686766",
"3. c #696867",
"4. c #6C6C6B",
"5. c #61696C",
"6. c #706F6E",
"7. c #766B64",
"8. c #71706F",
"9. c #7C7269",
"0. c #747473",
"q. c #787776",
"w. c #7C7B7B",
"e. c #767779",
"r. c #6C7370",
"t. c #8E7152",
"y. c #807E7E",
"u. c #867A72",
"i. c #887567",
"p. c #B74442",
"a. c #77807C",
"s. c #988463",
"d. c #81807F",
"f. c #86817A",
"g. c #938479",
"h. c #AF906E",
"j. c #B9A27C",
"k. c #C1A67E",
"l. c #096A86",
"z. c #136E85",
"x. c #09738C",
"c. c #16738D",
"v. c #097897",
"b. c #137B98",
"n. c #3E7F95",
"m. c #2D768D",
"M. c #7E7F80",
"N. c #417282",
"B. c #15819D",
"V. c #34879C",
"C. c #2B839C",
"Z. c #0C86A7",
"A. c #1288A6",
"S. c #0D8FB2",
"D. c #1294B6",
"F. c #1094B8",
"G. c #398DA5",
"H. c #3595AE",
"J. c #46869A",
"K. c #578598",
"L. c #719192",
"P. c #4B93A8",
"I. c #5999AD",
"U. c #4A96AD",
"Y. c #679BAC",
"T. c #5AA5B8",
"R. c #67A8BA",
"E. c #77A8B8",
"W. c #129EC2",
"Q. c #0A9AC1",
"!. c #17A5C8",
"~. c #15AFD5",
"^. c #27A9C7",
"/. c #2BAFCF",
"(. c #55B3CD",
"). c #6AB7CB",
"_. c #7BB3C5",
"`. c #76B6CC",
"'. c #6FC7D9",
"]. c #79D0E5",
"[. c #848383",
"{. c #898786",
"}. c #8C8B8B",
"|. c #888887",
" X c #928E8C",
".X c #938881",
"XX c #95918E",
"oX c #949393",
"OX c #9C9B9B",
"+X c #999998",
"@X c #88958E",
"#X c #A3988A",
"$X c #A09F9F",
"%X c #96A798",
"&X c #AFA597",
"*X c #9F9FA0",
"=X c #A4A4A3",
"-X c #ACABAB",
";X c #A6A9A9",
":X c #B3AEAC",
">X c #B3B3B2",
",X c #BABABA",
"<X c #BDB4AB",
"1X c #9AB2BA",
"2X c #CCB08A",
"3X c #C6BBB3",
"4X c #D4C8B6",
"5X c #E7D3B4",
"6X c #D8C49D",
"7X c #86B8CA",
"8X c #92C6D4",
"9X c #AFD1D5",
"0X c #9DD3E2",
"qX c #8CDBF1",
"wX c #A6DAE6",
"eX c #B4D6E3",
"rX c #B4E2E7",
"tX c #BBE6F4",
"yX c #B2EDF5",
"uX c #C4C4C4",
"iX c #CCCCCC",
"pX c #C9C8C6",
"aX c #D0CFCF",
"sX c #D8CCC0",
"dX c #D5D1CB",
"fX c #D4D3D2",
"gX c #D8D7D6",
"hX c #DBDADA",
"jX c #D9D8D7",
"kX c #C7D9D7",
"lX c #E6D7C8",
"zX c #EBDED2",
"xX c #F6ECD4",
"cX c #CAF9FE",
"vX c #D6F8FC",
"bX c #D2EBF2",
"nX c #FDF9E7",
"mX c #E2FFFF",
"MX c #ECFDFD",
"NX c #F4FFFE",
"BX c #E5EAE8",
"VX c #DDE4D6",
/* pixels */
"} } } { ..| O.O.+.+.@.#.#.#.#.;.*.;.1.1.O.,.L.4.*.1.>.*.@.;.2.1.1.1.*.*.,.#.#.@.@.O.O...{ { { } ",
"} } { { O.O.+.+.+.*.#.*.*.1.1.;.1.1.1.6.F ^ yX7X8XrXrX9X;Xa.*.2.3.1.1.1.1.#.#.#.#.+.+.+.O.{ { { ",
"} { | O.+.+.@.#.,.*.*.1.*.*.;.*.;.;.1.7.F / 0XwXtXcXcXvXMXMX,Xr.7.4.4.3.1.3.1.*.#.#.#.+.$.O.| { ",
"{ | O.O.+.#.#.#.1.*.2.#.v V V &.&.&.&.&.l ' 0X0XyXyXcXyXyXvXNXBXgX4X4XsX4XdX<X*.1.*.#.#.@.+.$.O.",
"..O.+.+.@.#.*.1.1.1.3.@.x &.B B &.&.&.t.v ^ 0X0X).'.].'.).).wXMXNXxXsXdXlXzX3X1.1.1.*.*.#.#.@.O.",
"| O.+.#.*.*.1.1.2.3.4.#.x %.t.x % 4 5 6 2 ] 0X0XT.(.8XwXrX8XR.wXMXNXBXa.#XzX3X;.3.1.1.1.*.#.@.@.",
"O.@.#.#.1.1.1.3.3.3.6.*.x %.i.g         o ] 0X0X).wXtXcXvXmXrXT.wXMXmXE.0.lX3X;.4.3.1.1.*.*.,.@.",
"+.#.#.*.1.1.3.3.4.4.6.,.z c &.h         = ' Y.8XY.0XbXtX9XbXmXrX(.`.9XE.y.lX:X3.4.4.3.3.1.1.#.#.",
"@.#.1.1.1.3.3.4.4.4.0.1.g v %.z         = ^ ' R.I.8X1XkXf.nXMXvXtXm.| 5X3XsX:X7.6.4.4.3.2.1.1.*.",
"#.#.;.1.3.3.4.4.0.6.0.2.w x m w         = ^ ^ I.T.7XO.xXnXnXuXBXmX).j  .7.&X&X6.8.6.4.4.3.2.1.*.",
"#.1.1.1.3.4.4.8.0.0.0.3.q g x q         = ] E._.I.7Xo.%.u.nX#X5XbX`.).( 7 .X&X6.e.6.6.6.4.3.2.1.",
"*.1.3.3.4.4.8.4.0.0.q.3.8 w g 5         = ' 8X7XP.7X7Xn...nXOX5.tX).qXU.=.3X#X0.e.8.8.6.4.4.3.1.",
"1.1.3.4.4.6.0.0.0.0.q.4.8 q w 1         ; ' 7X7XP.R.5.zX4XxXBXeXeX).].G.%.&X.X0.e.0.0.0.6.6.4.2.",
"1.3.4.4.6.8.0.0.q.0.w.6.7 6 6 *         = ' `._.P.I.} 2X4XxX6XxX9X(.].n.%.#Xg.w.e.0.0.0.6.6.4.4.",
"1.4.4.6.0.0.0.0.0.q.y.0.7 5 5 *         ; ' _._.J.I.X.k l 2Xi.>.7XT.'.G.m g.u.w.w.q.q.0.0.0.6.4.",
"3.4.6.6.8.0.0.e.q.w.w.0.5 1 1 &         ; ' R.E.V.I.Y.Y.] R L.K._.(.(.m.m i.i.w.w.w.e.e.0.0.6.6.",
"4.4.6.6.0.0.q.e.q.w.d.0.7 1 1 $         ; ' R.T.V.J.} 5XkX] &XVX_.H.(.c.v i.7.y.y.w.e.q.q.q.0.6.",
"4.6.8.0.q.q.e.w.w.w.[.e.7 1 1 #     . . ; ' T.T.C.J.f t.&XG t.6XY.H.(.c.x t.i.M.y.w.y.w.q.q.0.6.",
"4.6.0.0.q.q.q.w.w.y.[.0.7 1 1 #   X $ X : ( P.U.m.J.^ s m.] k <.I.H./.c.g &.>.{.[.w.y.w.q.e.0.0.",
"4.0.0.0.q.q.w.w.d.M.[.e.7 1 1 #   . # . : W K.P.c.m.n.n.J.J.P.G.H.H.^.c.w V >.{.w.w.y.w.y.q.e.0.",
"0.0.0.q.q.w.w.w.d.d.[.w.7 $ 1 #   @ .   : W L r.L.L.a.K.J.V.H.^.^.D.^.x.g c :.|.[.[.w.w.w.w.q.e.",
"8.0.q.e.w.w.y.d.d.d.{.w.7 1 $ X .     . : J 2 V s.j.j.k.%X!.^.!.~.S.W.l.g c =.}.[.[.[.y.y.w.w.q.",
"0.0.q.q.w.w.M.d.d.[.{.M.7 $ $ #     o   - P > %.-.j.s.-.%X~.~.^.^.D.W.l.9 c =.}.[.[.[.y.[.y.w.e.",
"0.q.w.w.w.y.d.d.[.[.{.d.7 $ 1 .   . % . < Z = t.k.j.j.h.L.~.~././.^.!.Q 9 c =.}.[.[.[.[.M.M.y.q.",
"e.q.q.w.y.y.[.[.[.[.{.d.7 $ 1 .   . 4 & 1 s O -.s.s.s.h.a.V.j.~.~.W.Q.Q 8 c :.oX{.{.[.[.[.d.M.w.",
"e.w.w.y.[.y.w.[.[.{.}.[.q $ $ X   o X   < a O -.N z s.h.%X` t.^.!.W.F.Q 6 z =.}.{.{.{.[.[.d.M.M.",
"w.w.w.w.[.[.[.[.[.{.}.[.q $ $ X . o , - < a o %.N w w t.a.Z.A.!.W.W.Q.E 6 z =.}.|.|.{.[.[.[.[.M.",
"w.w.y.[.[.[.[.[.{.{.}.{.q + 3 .   + q O 1 p o -.-.M c t.%XQ.!.D.S.Z.S.Q 4 z =.oX}.}.}.{.{.{.[.M.",
"w.w.[.[.[.[.|.|.}.}.}.}.q $ $ X   O f o : a O x M M M N [ Q.W.B.l.l.b.E 6 w =.+X}.}.}.}.}.{.{.[.",
"[.[.[.[.[.}.}.}.}.}. X}.f + $ .   o y + : C t > = ; 0 u x.` ` A.S.v.b.Q 4 w =.+X XoXoX}.}.}.}.}.",
"[.}.}.}.}.}.}.oXoXoXoXoXq # $ . . o + O : C h B u C ` B.B.` ` D.b.x.b.J 4 w >.*XoXoXoXoXoX X X X",
"}.}. XoXoXoX+XoX+XOXOXOXf # $ .   o = o , C s Y J ) ) ` S.Q.A.A.b.v.v.J 4 w 7.;X*X*XOXOXOX+X+XoX",
"oXoX+XOXOXOXOX$X$X$X*X=Xf # $ .   O ; o : A H [ E J _ S.S.F.Z.v.Z.v.v.A 4 6 7.>X=X-X;X=X=X=X*X*X",
"OXOXOX*X*X=X=X;X;X;X-X-Xh + $ .   3 < 3 : C M s.E l.Z.Z.S.v.[ B.Z.l.x.J 4 6 9.,X:X>X>X-X-X-X;X;X",
"$X=X=X;X;X-X-X:X:X:X:X>Xl . $ X   O , < r C k R Q x.v.A.v./ i.L.v.m.M.C 4 4 q.uX,X,X,X,X,X>X,X>X",
"=X=X;X;X-X-X:X:X>X>X>X>Xh . 3 .   o 3 < : A E Q Q l.) b.l...#.O.l.,.p.u 1 4 f.fXuXuXuX3X,XuX3X,X",
"OX$X$X=X=X;X=X-X-X-X-X>Xl   # .   o 3 * ; A ! ) E ) x._ z.2 w h x.D b f w 6 g.jXpXiXiXiXiXpXpXuX",
" XoXoXoX+X+X+X$XOX$X$X;Xl . +       3 + ; J ! ! ~ _ _ ^ z.s w T ! u & 6 5 % g.hXaXfXaXaXaXaXaXaX",
"w.w.y.y.y.[.[.[.{.{.[.}.f o .       @ @ ; A W W ~ W ` ` ` ` ` T G t , ; X . .XBXgXgXgXgXgXgXfXfX",
"X.X.X.X.X.X.X.X.X.X.X.X.q . .       @ @ = s Z J G n H K H n H n 0 u s : X # XXBXgXhXhXhXhXhXhXhX",
"I I I I F D D D D k j i 3 + .       o   ; a u G a d d n K d H G d s G > % % {.hXaXgXhXhXhXhXhXhX",
"I I I D F F D D D k j i 3 . .           ; a Z G a 0 0 d T T T Y Y L G > % % y.iXpXaXfXgXhXhXhXhX",
"I I D D D D D D k j i y - .           o ; a L L s d G P T T T Y G s > o # . 0.pXuXaXfXgXgXgXhXhX",
"X.X.o.o.o.R F D D k j y - . o . + - - = ; a L L L Y T T L G Z y k l h l } } +XaXaXaXfXfXgXgXgXhX",
"5.,.1.,.*.*.$.O...U F D j i i e y e e e > a G P L L G a y j $.{.:X9X3XpXiXaXaXaXfXfXfXfXfXgXfXgX",
"M.M.0.6.4.3.3.1.*.$...F D D Z j p y e e > y G s t t f +.}.,XiXaXiXpXiXiXiXiXaXfXaXfXfXfXfXgXfXgX",
"[.M.M.M.M.e.e.8.6.4.1.,.$.....F D i p t > > > k @.oX,XiXaXiXuXiXiXaXiXaXaXaXaXaXaXfXaXfXaXfXfXfX",
" X X}.}.}.{.{.{.{.{.[.[.[.[.M.M.M.e.e.r.5.0.oX,XiXiXiXpXuXiXiXiXiXiXaXiXiXaXaXaXaXaXaXaXaXaXaXaX"
};
