/* XPM */
static char *a246o_3rg4e[] = {
/* columns rows colors chars-per-pixel */
"48 48 178 2 ",
"   c #23263E",
".  c #28273C",
"X  c #2D2A3F",
"o  c #342B3F",
"O  c #472F3F",
"+  c #56333F",
"@  c #553A3F",
"#  c #242741",
"$  c #282742",
"%  c #262942",
"&  c #2B2B44",
"*  c #332D43",
"=  c #3A2F43",
"-  c #332E48",
";  c #3A2F48",
":  c #2E3048",
">  c #353145",
",  c #3C3245",
"<  c #3E3A47",
"1  c #363149",
"2  c #3D3349",
"3  c #3D394A",
"4  c #452E41",
"5  c #433445",
"6  c #4A3545",
"7  c #463946",
"8  c #4B3946",
"9  c #43364A",
"0  c #4A364A",
"q  c #45394B",
"w  c #4C3A4B",
"e  c #533444",
"r  c #5A3643",
"t  c #513C46",
"y  c #5B3A44",
"u  c #50374B",
"i  c #533C4B",
"p  c #5A3F4C",
"a  c #433752",
"s  c #4D3D50",
"d  c #523F50",
"f  c #653744",
"g  c #643B45",
"h  c #6C3E44",
"j  c #633D4A",
"k  c #6B3E49",
"l  c #703E46",
"z  c #4E444A",
"x  c #554144",
"c  c #5A4245",
"v  c #594847",
"b  c #54414C",
"n  c #5D424C",
"m  c #53484D",
"M  c #5C4C4C",
"N  c #554251",
"B  c #5F4250",
"V  c #5C5056",
"C  c #644046",
"Z  c #6D4145",
"A  c #6D4A47",
"S  c #62424D",
"D  c #6B444A",
"F  c #6D4C4B",
"G  c #744343",
"H  c #704047",
"J  c #764345",
"K  c #704444",
"L  c #774447",
"P  c #7A4546",
"I  c #7D4646",
"U  c #744A46",
"Y  c #7F4847",
"T  c #7B4D46",
"R  c #724349",
"E  c #724549",
"W  c #794548",
"Q  c #744C4B",
"!  c #7E4949",
"~  c #7B4C4A",
"^  c #6D534C",
"/  c #785147",
"(  c #76524C",
")  c #7C524B",
"_  c #604351",
"`  c #6B5B5B",
"'  c #755050",
"]  c #7D5551",
"[  c #73655A",
"{  c #7E6D5E",
"}  c #776860",
"|  c #804642",
" . c #854543",
".. c #834B46",
"X. c #844C44",
"o. c #8B4E46",
"O. c #824649",
"+. c #834D48",
"@. c #864D49",
"#. c #834D4C",
"$. c #894E49",
"%. c #8B4F4A",
"&. c #815747",
"*. c #8B5246",
"=. c #8E5046",
"-. c #8F5A47",
";. c #84534B",
":. c #8B544B",
">. c #85584D",
",. c #8C5B4D",
"<. c #925646",
"1. c #985545",
"2. c #92544B",
"3. c #94564B",
"4. c #935C4C",
"5. c #9B5C4B",
"6. c #825552",
"7. c #8A5651",
"8. c #865C50",
"9. c #8B5C53",
"0. c #8D5E59",
"q. c #945D52",
"w. c #995E50",
"e. c #A05D4A",
"r. c #8D6143",
"t. c #906046",
"y. c #95624D",
"u. c #9B644D",
"i. c #9D694E",
"p. c #8F6153",
"a. c #956252",
"s. c #9B6452",
"d. c #976851",
"f. c #9D6952",
"g. c #86745A",
"h. c #8B7759",
"j. c #877B5F",
"k. c #A3654D",
"l. c #A8654D",
"z. c #A46A4E",
"x. c #AB6D4D",
"c. c #AD714E",
"v. c #B3734E",
"b. c #B9774E",
"n. c #B4794F",
"m. c #BB7C4E",
"M. c #A16652",
"N. c #A56C53",
"B. c #AA6E52",
"V. c #A36D59",
"C. c #B46F53",
"Z. c #A67253",
"A. c #AC7353",
"S. c #AD7954",
"D. c #AD7658",
"F. c #B37452",
"G. c #BB7353",
"H. c #B47A53",
"J. c #BB7D53",
"K. c #B67E59",
"L. c #857864",
"P. c #C07F4F",
"I. c #9A8859",
"U. c #BD824F",
"Y. c #BC8153",
"T. c #958363",
"R. c #AB9A6B",
"E. c #B6A066",
"W. c #C1804F",
"Q. c #C28453",
"!. c #C88757",
"~. c #C68954",
"^. c #C98954",
"/. c #C18459",
"(. c #C88758",
"). c #C48959",
"_. c #CB8A58",
"`. c #C2AB71",
/* pixels */
"e e e e e 4 4 4 5 4 o & * * * * * * * * * * * * * * * - * * o o * * * * * = O + f h h f g h h h ",
"k k k k f g g e e 6 .                 % % % % . . . . # # # # # % # # # # o e y P I I J G L P I ",
"h Z J J l P H r r 6 .   # # # # # # # % % % % # $ & & & & & & & % % # # # = r g I I | |  .O.O. .",
"h W ! I I I R y j e & # % % % % % % % % % % % & & & & & & & & & % % % % % 5 f Z #.! +.#.=.Y G X.",
"g k H H H H h y j e & % % % % & & & & % % % % & & & & & & & & & % & & & % 5 k Z +.....@.$.l h @.",
"6 e + r y r e 6 e e & % & & %     # # # # # # & & # # # . .   . # % & % % 6 R Z Z Z H Z Z j Z K ",
"g Z Z Z Z g j 8 e i X & & * & #   % % % % # # & & % & & & & % % # & & & 3 v P P @.*.*.o.$.$.2.o.",
"+.@.$.$.@.Y ! C R S o & * - & & & 1 1 1 1 & & * - * 1 2 2 1 1 * & & & & 1 c ! ..3.1.1.3.2.3.3.3.",
"#.#.;.:.;.! T D ~ D o & 1 1 & & 1 2 9 5 , * & - 1 * 9 w 9 9 9 - & & & & * @ $.=.5.e.5.3.X.2.5.5.",
"....@.:.:.! Q D #.E > * 1 1 * & 1 7 6 6 , * & 1 , , 9 w 9 9 9 , & * - * * y $.2.k.l.e.*.o.5.5.e.",
"P P P T ~ L E D 7.~ > * 1 2 - - 9 w q 9 5 = * 2 1 2 0 w 7 5 9 , * - ; - 1 C 3.*.:.;.@.P ~ ;.;.;.",
"Z Z R R R R H Z ,.) , * 2 2 1 - 9 w 7 9 5 , * 2 2 2 w i 8 7 7 5 * 1 2 , 1 C 5.<.4.+.P 4.u.u.u.u.",
":.:.2.4.4.s.,.~ 9.) , 1 2 2 1 - 9 0 0 9 7 5 * 2 2 5 t p t 8 0 5 * , 5 1 1 D 5.u.B.y.4.x.v.F.v.b.",
":.*.:.q.s.M.5.) y.6., 1 2 2 , = 9 w 0 9 0 5 * , 9 9 i p i w w 6 * , 5 2 , D k.u.F.A.x.v.c.F.F.F.",
"q.q.y.4.q.4.4.;.,.6., 1 9 5 , = 0 i w 7 w 9 * 2 9 9 i p p i t 0 = , 9 , , n :.<.F.F.F.F.v.v.b.b.",
"w.s.u.-.4.s.a.>.a.9.5 1 9 5 , = 0 i w w w 9 * 2 9 5 i n p i i 0 = , 9 , 5 y :.4.B.x.x.x.x.x.v.v.",
"Q ~ ) U T ;.T U s.0.5 , 9 9 2 , 0 b w w w 0 - 2 9 5 i n p i i 0 = 2 9 2 , D N.5.4.y.y.4.4.4.4.y.",
">.>.7.9.9.9.q.6.s.9.5 1 0 0 2 , 0 b w w i 0 = 9 9 5 i n p i i 0 , 2 9 2 , E l.k.F.H.H.H.F.v.v.b.",
"s.s.s.s.M.M.V.0.7.' , 2 ` [ 9 2 w b i w w w , 9 9 5 p n p i i 0 , 9 0 9 2 F k.l.b.b.b.J.J.G.C.G.",
"s.a.s.s.s.M.N.7.9.] 5 9 } L.7 2 w b i w w w , 9 7 5 p n p i p 0 , 9 w q 2 D k.x.b.J.Y.J.m.m.J.Q.",
"q.*.y.k.M.N.s.;.a.9.9 2 i x 9 2 w i i i i t , 7 7 5 p n p p p t , 9 w w 9 E k.N.J.P.Q.W.W.Q.W.Q.",
"a.7.a.s.s.s.q.) s.9.0 q w s 9 2 w i i i i i 5 7 q 5 p S n p p t , 9 w w 5 ~ C.s.u.u.i.y.y.d.y.d.",
":.:.>.8.>.>.:.T s.a.8 q N d 7 , w i i w i i 5 7 q 5 i S n p B t , 9 w 0 6 / F.N.u.u.f.u.4.,.,.:.",
"s.M.V.V.V.V.V.9.M.a.6 w N b 7 , w i i w w i 5 7 w 5 p S S n B t , 9 8 w 0 / B.N.F.J.J.J.b.v.v.b.",
"s.s.s.M.V.B.V.a.N.a.8 q N b 7 5 w i i w w i 5 7 w 5 p S S n B t , 9 w w 0 Q B.M.F.Q.J.J.Q.Q.Q.Q.",
"a.a.4.a.M.V.V.d.N.s.w q N w 7 5 w i i w w i 5 7 q 5 p S S S _ i 5 7 w w 0 ) B.N.v.U.m.Y.~.Q.~.~.",
"u.s.y.d.f.Z.V.a.N.s.i q b s 9 , w i i w w i 5 7 7 5 p S S n B p 5 7 i w 5 ( D.N.c.m.H.n.Y.Y.H.J.",
"Q Q Q ( ] >.&.) M.s.i 9 z w 9 , w i i w w i 6 7 7 5 b S S n n p 5 9 i s , F B.u.5.s.k.k.N.z.z.N.",
",.4.y.a.a.y.y.8.N.s.t 2 s w 9 , w b i w w i 6 7 7 5 p S S n n p 5 9 i w 3 ^ B.N.Z.J.U.H.A.A.J.).",
"A.A.D.V.Z.Z.Z.d.z.u.t a m M 9 , w b i w w i 6 7 0 5 p S S n n p 5 9 t w < ^ B.N.A.J.J.s.4.u.Z.K.",
"B.D.A.Z.Z.V.N.4.u.a.i 9 j.R.b , w b i w i i 6 7 0 5 p S S n n p 9 9 t 0 , ^ x.N.F.J.H.A.Y./.Q.).",
"N.B.z.z.B.z.s.:.;.6.t , T.`.v 5 8 i i w i p 8 7 8 5 p D S n n i 9 q w 0 9 F x.N.A.H.c.n.Q.~.~.Q.",
"a.a.9.9.a.a.9.) >.;.e 2 { I.V w w i w w i p 7 9 8 5 p D S S n i 5 9 w w 0 F A.u.8.,.9.a.f.f.f.u.",
">.>.>.>.t.,.,.&.a.a.p 2 g.R.m , 7 w w 0 w p 6 9 0 5 i j j n p i 2 2 0 w 0 Q A.u.i.A.H.H.H.H.H.S.",
"A.D.A.S.S.D.V.a.i.f.c , h.`.v o 0 w w 0 w t 5 2 0 2 w p p i i w 2 2 0 w 0 Q B.z.K.~._._.^.~.(.!.",
"B.B.Z.A.A.B.s.,.u.N.c 2 g.E.M , , 5 , 9 5 9 , , q = 5 0 9 9 9 2 1 2 7 7 8 A B.N.H.Q.Q.Y.Y.Q.Q.).",
"z.z.N.z.z.z.u.,.u.f.n 2 { R.z * & & & & & & : 1 3 * X * * * & * * 2 w 0 0 A u.i.Y.Q.Y.Y./.Y.Y./.",
"s.s.s.z.z.N.M.a.u.u.n 2 8 v q * - , , 2 , 1 1 1 2 1 2 2 9 , , 2 2 9 w w w F u.y.S.J.H.F.D.B.x.c.",
"Q Q Q / / ) / Q y.u.S , 9 a 3 , , 9 9 9 9 2 , 9 9 2 2 9 9 9 2 2 2 3 q 0 0 Q N.u.s.a.;.;.) 8.,.y.",
"s.u.s.s.f.f.f.p.y.s.n 1 2 9 , 1 1 1 1 2 , , * , 2 * 1 1 1 1 1 , > 2 7 0 8 ( V.s.A.N.4.y.z.H.J.J.",
"N.z.B.A.N.z.z.y.u.s.c 1 , , 2 1 2 9 9 9 q q , , 9 1 2 q q q q q 1 2 0 0 6 ( M.y.H.F.A.c.H.Q.Q.).",
"u.z.z.N.V.u.Z.y.4.4.x 1 1 > , - , 9 9 9 9 0 5 5 0 - , 0 0 0 0 0 2 2 0 0 0 Q s.y.H.v.F.H.H.H.J.H.",
":.y.4.s.s.4.s.) F 8.c 1 2 , , = , 0 0 0 6 0 5 5 0 = , w w w w w 5 2 8 7 0 F N.f.A.A.F.A.N.B.F.A.",
"U ) ~ U U K ~ S c 8.c - 2 2 , , 5 w w 0 0 w 5 5 0 , 5 t i t i t 5 2 0 7 9 A N.u.r.t.,.>.,.,.y.4.",
"T T ) / ;.~ 6.F ) a.c - , , 5 , 5 w 0 0 0 u 6 5 8 , 9 p t t t t 5 2 7 9 5 F M.u.Z.D.f.9.d.f.f.y.",
"4.4.5.u.k.u.M.4.4.s.x * 1 , , , 5 w 0 0 0 u 6 5 7 , 6 i t t t i 5 2 9 9 5 D s.f.H.H.c.N.N.M.N.N.",
"2.:.<.u.u.4.k.t.4.y.x * 1 , , , 5 w 0 0 0 u 6 5 7 = 5 t t t t p 5 , 6 9 5 S a.u.A.c.N.N.z.z.B.B.",
"4.4.4.y.y.y.k.t.4.q.t & 1 , , = 5 0 0 7 0 u 5 5 7 = 5 i t t t p 5 , 5 , 9 n 4.s.A.F.x.N.B.B.F.B."
};
