/* XPM */
static char *at14d_f2t1u[] = {
/* columns rows colors chars-per-pixel */
"48 48 229 2 ",
"   c #0C0E10",
".  c #101013",
"X  c #151515",
"o  c #191A1A",
"O  c #1C1C1C",
"+  c #261D15",
"@  c #23211D",
"#  c #28241D",
"$  c #3A2214",
"%  c #171C22",
"&  c #1C1E23",
"*  c #201E23",
"=  c #1E2125",
"-  c #1D232A",
";  c #232323",
":  c #292726",
">  c #24252A",
",  c #26292C",
"<  c #2C2C2C",
"1  c #302B24",
"2  c #322D2C",
"3  c #2D322F",
"4  c #37332E",
"5  c #252B32",
"6  c #252B34",
"7  c #2A2E32",
"8  c #312E32",
"9  c #2D3133",
"0  c #273039",
"q  c #2D343C",
"w  c #323433",
"e  c #343936",
"r  c #34353A",
"t  c #353C3A",
"y  c #393D3B",
"u  c #503118",
"i  c #482824",
"p  c #502925",
"a  c #46332A",
"s  c #583227",
"d  c #493731",
"f  c #5A3730",
"g  c #633C38",
"h  c #36423E",
"j  c #3A413F",
"k  c #4A4538",
"l  c #5E423A",
"z  c #744E2D",
"x  c #694339",
"c  c #2F3741",
"v  c #353A44",
"b  c #343C47",
"n  c #393D42",
"m  c #3D4343",
"M  c #3D4349",
"N  c #3A444B",
"B  c #3C4754",
"V  c #414446",
"C  c #424649",
"Z  c #444A4D",
"A  c #4A4A48",
"S  c #514B47",
"D  c #464C52",
"F  c #444A55",
"G  c #494E54",
"H  c #4C5156",
"J  c #4E535A",
"K  c #495458",
"L  c #535552",
"P  c #51565D",
"I  c #53595E",
"U  c #595D5C",
"Y  c #674A44",
"T  c #734E4B",
"R  c #66554D",
"E  c #79564C",
"W  c #7A5452",
"Q  c #67655D",
"!  c #7C675C",
"~  c #4B5963",
"^  c #555B62",
"/  c #595E64",
"(  c #525E6B",
")  c #635F63",
"_  c #5C6265",
"`  c #56646C",
"'  c #5D636A",
"]  c #5A6975",
"[  c #5F707D",
"{  c #636665",
"}  c #696965",
"|  c #61676C",
" . c #646A6D",
".. c #6B6B6B",
"X. c #756B67",
"o. c #7E7367",
"O. c #656C72",
"+. c #696E74",
"@. c #666D79",
"#. c #657175",
"$. c #6B7176",
"%. c #65727C",
"&. c #6D747A",
"*. c #6E787D",
"=. c #737373",
"-. c #7D7673",
";. c #72767B",
":. c #737A7D",
">. c #7B7B7C",
",. c #825F38",
"<. c #8E6746",
"1. c #816254",
"2. c #846C5E",
"3. c #99755A",
"4. c #A27449",
"5. c #846D64",
"6. c #876B68",
"7. c #906B61",
"8. c #887368",
"9. c #927769",
"0. c #8A7772",
"q. c #8D7B73",
"w. c #827D78",
"e. c #937E75",
"r. c #9F856D",
"t. c #8D837D",
"y. c #948075",
"u. c #9A8379",
"i. c #9B917D",
"p. c #AF8B74",
"a. c #BC977D",
"s. c #6C7B85",
"d. c #6D7E8C",
"f. c #747D83",
"g. c #7A7E84",
"h. c #757E89",
"j. c #917E81",
"k. c #768185",
"l. c #7A8286",
"z. c #74828A",
"x. c #7B858A",
"c. c #7D898D",
"v. c #788997",
"b. c #7C8A94",
"n. c #7E8FA0",
"m. c #838383",
"M. c #898581",
"N. c #8C8A86",
"B. c #81858B",
"V. c #84898D",
"C. c #8B8C8B",
"Z. c #958986",
"A. c #9C8C8A",
"S. c #97918C",
"D. c #9D918D",
"F. c #848D92",
"G. c #8A8E94",
"H. c #8A8E95",
"J. c #828E99",
"K. c #9C8E99",
"L. c #869195",
"P. c #8A9196",
"I. c #85929C",
"U. c #8C949A",
"Y. c #8E999E",
"T. c #929292",
"R. c #9C9793",
"E. c #999A97",
"W. c #91969C",
"Q. c #929A9E",
"!. c #A88C89",
"~. c #A4948D",
"^. c #B99A86",
"/. c #A69B96",
"(. c #AC9B95",
"). c #B49D96",
"_. c #BCA28C",
"`. c #AAA09C",
"'. c #B5A699",
"]. c #8795A3",
"[. c #8D9AA4",
"{. c #949CA2",
"}. c #999EA4",
"|. c #96A1A6",
" X c #9AA1A7",
".X c #9CA4AA",
"XX c #99A5AD",
"oX c #9AA6B2",
"OX c #9EABB5",
"+X c #A5A6A6",
"@X c #A1A6AD",
"#X c #A3A9AF",
"$X c #BBAEA5",
"%X c #BAB5AC",
"&X c #A5AAB1",
"*X c #A1AAB4",
"=X c #AAAEB4",
"-X c #ABB1B5",
";X c #ADB2B9",
":X c #B7B6B3",
">X c #B1B6BC",
",X c #B5BBBE",
"<X c #CD9C83",
"1X c #CBA188",
"2X c #C5A795",
"3X c #C6B2A7",
"4X c #C5C3BC",
"5X c #DBC5B5",
"6X c #E1C3AB",
"7X c #B5BBC2",
"8X c #B8BEC4",
"9X c #B5BDC8",
"0X c #BCC2C7",
"qX c #BFC8D0",
"wX c #C4C7C9",
"eX c #D6CFCF",
"rX c #D6D2C7",
"tX c #C5CCD1",
"yX c #CCD2D5",
"uX c #D1D4D4",
"iX c #D3D9DC",
"pX c #DADCDD",
"aX c #EFE1D4",
"sX c #F2E8D7",
"dX c #D6DBE0",
"fX c #DBDEE2",
"gX c #F2EEEC",
"hX c #F4F2E8",
"jX c #F7F5F4",
/* pixels */
"P.H.H.P.H.H.B.:. ._ U _  .:.l.c.c.F.L.U.Y.F.*.I n , > = O X O ; : < 4 w t U /.`.D.0.X.X.5.8.e.u.",
"H.H.H.H.F.F.F.g.+._ _ _ O.:.k.x.x.c.F.U.U.F.*.I n - = = ; o O ; , 7 w e t L /././.t.8.5.0.q.y.y.",
"H.P.H.H.F.H.H.B.&. ._ _ +.f.k.x.l.x.V.L.U.F.*.^ M = o ; ; @ O ; : < w w t A A.~.~.Z.0.0.0.q.y.e.",
"H.H.F.H.H.P.P.x.&. . .| $.f.l.z.k.l.c.F.U.F.*.I M - & = & O O ; : 2 w e t A t.D.D.Z.0.8.0.q.0.q.",
"H.H.F.H.P.W.P.B.&. .| | +.:.l.x.k.l.c.L.U.F.&.J M > - = = = O ; : < w e t V w.A.A.Z.8.! 5.5.q.e.",
"H.H.H.H.P.P.H.B.;. .{ | O.$.f.x.f.l.c.L.U.c.$.J M 5 - = ; O O ; : < w e t j X.A./.!.8.! ! 5.q.q.",
"P.F.F.H.P.P.H.B.;. .| | O.$.:.c.f.l.x.F.U.c.$.J M 5 & & , O O ; : < w e t j L D.(.~.9.5.2.8.8.8.",
"W.H.F.H.P.H.H.x.&. .{ '  .$.*.F.l.x.x.F.U.c.+.H v - > % , = O ; : < w e t h A Z.).).u.9.8.2.8.2.",
"W.H.F.H.P.H.H.l.$.{ { _ | O.*.L.l.l.x.F.P.x. .G v 5 6 o = ; O ; : < w w t M Z -.).(.u.9.7.2.8.2.",
"W.P.H.P.H.H.H.V.:. .{ _ {  .:.L.f.k.x.F.P.l.' D v 6 0 - & & ; ; : < w t m C D { A.!.7.E T E W 1.",
"P.W.}.}.U.H.P.V.:...{ _ _  .k.F.f.k.x.F.L.k.' D v q q 7 > & ; ; : < e y t t H  .w.e.T g f g s g ",
"{.=X>X=X&XW.H.x.$. .{ _ | &.F.F.f.k.c.F.L.k.' D b c 5 - > * ; ; ; < e e e t P $.m.t.2.x s p i i ",
"=X0X0X8X7X@XP.V.:.=.$.$.$.f.L.x.k.k.x.F.F.f.' G N 0 - % % & ; O ; : < 9 t m D ..l.H.~.r.1.Y g p ",
"8X0X0XwXwX>X.XW.l.$. . .$.x.F.k.f.k.x.F.P.l.%.` B N c c - - > r w w y G ^ ' $.:.N.`.2X^.r.1.x 1.",
"8X;X;X7X;X.XU.x.&. .' ' $.F.x.k.k.x.c.P.Y.U.h.%.` s.c.@.F b N K M J  .:.h.h.g.C.'.2Xa.3.z s 7.!.",
";X#X&X@X}.W.H.x.:.&. . .l.x.z.z.c.F.P.Y.{.{.b.s.%.z.*X{.&.^ ` O.*.k.l.F.F.B.S.'._.p.<.z u x !.!.",
"-X@X.X{.{.P.H.g.*.+.$.f.x.k.x.c.F.U.{.{.{.Y.[.h.%.z.OXXXJ.h.h.c.L.U.F.x.l.~.2Xa.3.,.s $ $ 6.j.6.",
"&X&X@X.XW.P.H.g.f.f.f.x.x.x.c.L.U.{..X.X|.Y.[.I.s.z.XXOXJ.J.f.h.z.k.#.$.R.^.p.4.z u $ a d 6.6.W ",
"@X#X@X#X.X}.W.H.F.l.k.x.F.L.Y.|..X.X.X.X.X{.I.{.[.z.[.*Xb.h.z.@.` D { ,XeXp.<.z u + S ! l W T g ",
".X.X#X&X&X.X{.W.F.l.f.c.Y.Y.|..X.X.X.X.X.X{.U.I.[.].XXOXh.` %.F q { wXuX9XK.x $ + V { X.Y Y Y g ",
"@X&X&X&X&X+X}.}.P.F.F.U.Q.{..X.X.X.X.X.X.X{.U.b.c.v.[.oX&.0 B J B.uXuX-XY...2 @ C I / X.X.R Y g ",
"@X&X&X&X;X-X&X}.W.U.P.P.U.{. X X|.|.|..X X{.F.s.%.d.v.I.f.& F -XpXwX=XP.U 1 < C H ^ _ { } R f s ",
".X.X.X&X8X>X=X.X{.W.x.B.F.U.{.{.{.{.{.{.|.U.s.` ` d.n.z.f._ -XpX0X@XB.H ; < V C H I / '  .) S a ",
"{.{.{.&X0X8X-X@X#X}.P.P.P.V.F.U.Y.U.U.Y.U.c.%.~ ( v.v.[ U.uXiX8X}.;.V ; w m j M G P / ' | O.+...",
"Q.W.{.#X8X7X#X.X&X#X@X{.F.V.F.U.U.P.P.L.F.c.s.( s.].v.XXiXuX7XU...e @ 9 y j j M G P ^ ' | O.+.&.",
"{.Q.{..X7X>X.X}.&X.X@XW.x.x.F.L.F.F.L.U.U.I.%.` n.].;XpXtX&XU.+.y : 3 e t t j M D H ^ ' | O.+.&.",
"W.{.{.}.=X&X}..X X{.}.P.x.l.l.F.F.F.F.U.U.].J.I.oXqXpXwX+Xf.P C m t < w t t m M Z H ^ ' | O.+.=.",
"H.W.W.W..X#X.X@X}..X&X}.g.&.*.x.F.F.F.L.I.].oX8XiXiX8X}.$.n 9 _ I , < w t y j m Z H I _ | O.+.&.",
"g.V.H.P.W.}.@X@XW.+X=X+XU.*.*.f.x.V.V.F.I.oXtXdXuX>XQ.| 9 5 O.P.H > 9 w t y j m Z H I / | O.+.&.",
"+.g.m.>.g.W.#X+Xg.V.&X.X XF.:.f.l.c.c.F..XyXfXwX-XH.U 5 b @.*.x.Z > w w t y m V Z H P / | O.+.&.",
"........>.H.W.C. ...+X X.X{.f.f.k.l.F..XuXfXwX#XB.H > n h.@.K x.n < w w t j m V Z H P / ' O.+.&.",
"..{ { ..>.C.>.X...:.E.`.&X}.g.f.k.x.&XdXiX0X+X:.V > r ^ h.` O.l.< : 9 w t j m V Z H P / '  .+.$.",
"....} ..:.>...X.} V.S.(.$XR.g.f.c.=XfXpX,X|...r ; < > v @.%.I.| ; < 9 e t j m C D H P / '  .+.+.",
"..................W.A.!.~.w.f.F.,XfXtX-XP./ < > 8 X   q ` c.I.D ; < w e t j m C D H P / '  .+.$.",
"............X.X.o./.!.!.t.=.C.wXpXwX+Xm.L ; 8 Z w X . b %.I.x.q : < w e t j m C D H P ^ ' | +.$.",
"....X.=.=.=.=.q.p.).).A.w.N.4XeX:XE.>.V : G U Z 9 X X ~ b.[.O.= : 2 w e t j m Z G H P ^ ' | +.$.",
"=...=.;.>.>.-.$X5X^.2XA.X.i.'.Z.w.Q e < ..l._ C 7 X & s.I.J.n O : < w e t m C D G H P ^ ' | O.$.",
"=.=.>.>.>.>.M.rXaX1Xa.u.R d 4 1 k # e :.U.x._ C 7 . 7 b.b./ o ; < < w e t m C D H H P ^ ' | O.$.",
"=.;.>.m.m.m.R.sXsX2X<X3Xu.S 4 # X y m.[.Y.c._ C 7 . t x.] - O ; < 9 w e t m C G H P P ^ ' | O.$.",
">.>.m.m.m.m.+XgXgX2Xp.2X^.E a 2 L m.U.Y.Y.F._ C 7 X > G > X ; ; < w e t t m Z G H P I ^ ' | O.$.",
">.>.m.m.m.m.%XjXjX3X5.e.^.7.Y >.U.P.U.Q.Q.U.' C < X X X X O ; : < w e t y M Z G H P ^ / ' | O.$.",
">.m.m.V.C.M.3XjXjX4XQ } -.Z.N.P.P.P.U.|.{.U.| C < X X X o O ; : < w e y m V Z H J P ^ / ' | O.$.",
"m.m.m.C.C.M.3XhXhXrXQ { =.m.H.U.U.P.U. X|.Y. .C < X X X o O ; : < w e y m V Z H P ^ ^ / ' | O.$.",
"m.m.N.C.C.N.%XsXsXrX} { ;.B.H.U.U.U.U.{..XP.' C < X X X o O ; : < w e y m V Z H P P ^ / '  .+.$.",
"m.C.C.C.C.N.'.6X6X5XX.{ :.V.P.U.U.U.U.U.U.l._ C < X X X o O ; : < w e y m V Z H J P ^ / '  .+.$.",
"C.C.C.P.T.C.`.^.^._.X...>.V.P.U.U.U.U.U.L.f._ C < X X X o O ; : < w e y m V Z H J P ^ / '  .+.&.",
"N.C.C.T.T.C.R.i.y.t.} +.>.V.P.P.U.U.U.Y.F.f._ V < X X X o O ; : < w e t j M Z H J P ^ / '  .+.&.",
"C.C.T.T.T.T.T.t.-.-. .$.>.V.P.P.U.U.U.Y.F.f._ V < X X X o O ; : < w e t j M Z H J I ^ / '  .+.&."
};
