/* XPM */
static char *a794n_mbqq9[] = {
/* columns rows colors chars-per-pixel */
"48 48 171 2 ",
"   c #0D7D4B",
".  c #127E4C",
"X  c #ED2E33",
"o  c #ED3136",
"O  c #EE3C35",
"+  c #EC3439",
"@  c #EC393E",
"#  c #E04635",
"$  c #E04A33",
"%  c #015A36",
"&  c #026135",
"*  c #036C33",
"=  c #047333",
"-  c #057034",
";  c #ED3D42",
":  c #ED4449",
">  c #ED4D52",
",  c #ED5559",
"<  c #EE585D",
"1  c #016C43",
"2  c #EE6468",
"3  c #EE6A6D",
"4  c #E06E72",
"5  c #E07276",
"6  c #E0787C",
"7  c #15804B",
"8  c #168150",
"9  c #1B8353",
"0  c #24884A",
"q  c #3D9649",
"w  c #248759",
"e  c #2A8B50",
"r  c #2E8D61",
"t  c #308E64",
"y  c #399268",
"u  c #479B49",
"i  c #69AD47",
"p  c #75B349",
"a  c #459972",
"s  c #479A73",
"d  c #56A17E",
"0  c #64A960",
"g  c #089D2E",
"h  c #058533",
"j  c #058832",
"k  c #058A3C",
"l  c #069231",
"z  c #079930",
"x  c #09A52E",
"c  c #0AAB2E",
"v  c #0BB42D",
"b  c #0BBC3D",
"n  c #C2CE3D",
"m  c #D3CE3B",
"M  c #EDCD2E",
"N  c #00CC27",
"B  c #0EC52A",
"V  c #03CC2D",
"C  c #00CC29",
"Z  c #E7CD31",
"A  c #0ECD32",
"S  c #0DCC3B",
"D  c #0ED030",
"0  c #84BC47",
"G  c #058044",
"H  c #04944D",
"J  c #059E5D",
"K  c #08B85C",
"L  c #059060",
"P  c #08BE67",
"I  c #05AD7C",
"U  c #05B07D",
"Y  c #97C647",
"T  c #A6CE46",
"R  c #A9C046",
"E  c #AAC048",
"W  c #B3C042",
"Q  c #ABD046",
"!  c #ACD04C",
"~  c #B7D14E",
"^  c #AAC057",
"/  c #A0D253",
"(  c #B1D256",
")  c #B7D563",
"_  c #BCD76D",
"`  c #BDD870",
"'  c #0DD247",
"]  c #E9D45A",
"[  c #0CD55B",
"{  c #C6D860",
"}  c #0BD56A",
"|  c #0BDB7A",
" . c #007081",
".. c #64A98A",
"X. c #6EA092",
"o. c #74B193",
"O. c #70B79C",
"+. c #88BCA3",
"@. c #E08184",
"#. c #01878A",
"$. c #018C8C",
"%. c #009093",
"&. c #019B9D",
"*. c #05AE86",
"=. c #06B586",
"-. c #05B78A",
";. c #06B88C",
":. c #05BC93",
">. c #03B19D",
",. c #029EA0",
"<. c #02A2A4",
"1. c #05ACAD",
"2. c #02AEB0",
"3. c #03B3B5",
"4. c #03BBBB",
"5. c #B1D195",
"6. c #90C0A7",
"7. c #94C2AB",
"8. c #9CC6B0",
"9. c #9EC8B3",
"0. c #B1D1AE",
"q. c #A4CCB8",
"w. c #0BDE88",
"e. c #06C593",
"r. c #05C29C",
"t. c #D1E29B",
"y. c #09E39D",
"u. c #06C9A8",
"i. c #06D0B5",
"p. c #D6E4A3",
"a. c #DCE8B5",
"s. c #DAE7B8",
"d. c #D0E9BB",
"0. c #0AE6AC",
"g. c #09EBBD",
"h. c #A0D1C2",
"j. c #B4D4C4",
"k. c #B8D5C5",
"l. c #C4DCCE",
"z. c #C3DCD1",
"x. c #C8D0D3",
"c. c #04C7C9",
"v. c #06DBCA",
"b. c #05C0D0",
"n. c #05D9DA",
"m. c #CAE0D6",
"M. c #E5ECC8",
"N. c #07EAC8",
"B. c #ECE0D2",
"V. c #07E2D3",
"C. c #07E7DD",
"Z. c #ECF1D9",
"A. c #F9F1DA",
"S. c #D8E7E0",
"D. c #DAE8E1",
"F. c #E2ECE7",
"G. c #E8EFEA",
"H. c #F6E3E4",
"J. c #F7ECED",
"K. c #EAF1ED",
"L. c #F4F3E5",
"P. c #F8F3E3",
"I. c #F4F5ED",
"U. c #F8F3EC",
"Y. c #EFF3F1",
"T. c #F5F4F3",
"R. c #F8F6F5",
"E. c #F7F8F7",
"W. c #F8F8F7",
"Q. c #F8F8F8",
"!. c #F8FBFB",
/* pixels */
"Q.Q.Q.Q.Q.Q.Q.Q.Q.Q.Q.Q.Q.Q.Q.Q.Q.Q.Q.Q.Q.Q.Q.Q.Q.Q.Q.Q.Q.Q.Q.Q.Q.Q.Q.Q.Q.Q.Q.Q.Q.Q.Q.Q.Q.Q.Q.Q.",
"Q.Q.Q.Q.Q.Q.Q.Q.Q.Q.Q.Q.Q.Q.Q.Q.Q.Q.Q.Q.Q.Q.Q.Q.Q.Q.Q.Q.Q.Q.Q.Q.Q.Q.Q.Q.Q.Q.Q.Q.Q.Q.Q.Q.Q.Q.Q.Q.",
"Q.Q.Q.Q.Q.Q.Q.Q.Q.Q.Q.Q.Q.Q.Q.Q.Q.Q.Q.Q.Q.Q.Q.Q.Q.Q.Q.Q.Q.Q.Q.Q.Q.Q.Q.Q.Q.Q.Q.Q.Q.Q.Q.Q.Q.Q.Q.Q.",
"Q.Q.Q.Q.Q.Q.Q.Q.Q.Q.Q.Q.Q.Q.Q.Q.Q.Q.Q.Q.Q.Q.Q.Q.Q.Q.Q.Q.Q.Q.Q.Q.Q.Q.Q.Q.Q.Q.Q.Q.Q.Q.Q.Q.Q.Q.Q.Q.",
"Q.Q.Q.Q.Q.Q.Q.Q.Q.Q.Q.Q.Q.Q.Q.Q.Q.Q.Q.Q.Q.Q.Q.Q.Q.Q.Q.Q.Q.Q.Q.Q.Q.Q.Q.Q.Q.Q.Q.Q.Q.Q.Q.Q.Q.Q.Q.Q.",
"Q.Q.Q.Q.Q.Q.Q.Q.Q.Q.Q.Q.Q.Q.Q.Q.Q.Q.Q.Q.Q.Q.Q.Q.Q.Q.Q.Q.Q.Q.Q.Q.Q.Q.Q.Q.Q.Q.Q.Q.Q.Q.Q.Q.Q.Q.Q.Q.",
"Q.Q.Q.Q.Q.Q.Q.Q.Q.Q.Q.Q.Q.Q.Q.Q.Q.Q.Q.Q.E.H.c.2.,.&.<.3.b.J.Q.Q.Q.Q.Q.Q.Q.Q.Q.Q.Q.Q.Q.Q.Q.Q.Q.Q.",
"Q.Q.Q.Q.Q.Q.Q.Q.Q.Q.Q.Q.Q.Q.Q.Q.Q.Q.J.4.6 > @ o X X o + ; < $.b.E.Q.Q.Q.Q.Q.Q.Q.Q.Q.Q.Q.Q.Q.Q.Q.",
"Q.Q.Q.Q.Q.Q.Q.Q.Q.Q.Q.Q.Q.Q.Q.Q.E.c.3 @ X X o o o o o o + O $ 1 *.V.Q.Q.Q.Q.Q.Q.Q.Q.Q.Q.Q.Q.Q.Q.",
"Q.Q.Q.Q.Q.Q.Q.Q.Q.Q.Q.Q.Q.Q.Q.J.%.; X o o o o o o + # % = - h h h H u.E.Q.Q.Q.Q.Q.Q.Q.Q.Q.Q.Q.Q.",
"Q.Q.Q.Q.Q.Q.Q.Q.Q.Q.Q.Q.Q.Q.H.5 o o o o o o o + $ * h h h h h h h h k :.R.Q.Q.Q.Q.Q.Q.Q.Q.Q.Q.Q.",
"Q.Q.Q.Q.Q.Q.Q.Q.Q.Q.Q.Q.Q.H.4 X o o o o o o $ * h j h h h h h h h h h h :.R.Q.Q.Q.Q.Q.Q.Q.Q.Q.Q.",
"Q.Q.Q.Q.Q.Q.Q.Q.Q.Q.Q.Q.T. .o o o o o o O & h h h h h h h h h h h h h h k u.Q.Q.Q.Q.Q.Q.Q.Q.Q.Q.",
"Q.Q.Q.Q.Q.Q.Q.Q.T.T.Q.Q.<.+ X X X X X $ = h h h h h h h h h h h h h h h h G v.Q.Q.Q.Q.Q.Q.Q.Q.Q.",
"Q.Q.Q.Q.Q.Q.Q.n.3 5 H.J.&.: , #.#.#.$.*.=.=.=.;.u.u.r.I H h j l z x x c c x P U.Q.Q.Q.Q.Q.Q.Q.Q.",
"Q.Q.Q.Q.Q.Q.Q.<.X o 3.H.Q.$.3.Q.Q.Q.Q.Q.Q.Q.Q.Q.Q.Q.Q.E.C.e.b B C N N N N N C f.Q.Q.Q.Q.Q.Q.Q.Q.",
"Q.Q.Q.Q.Q.Q.Q.c.> < 3.5 1.< 5 4.v.R.Q.Q.Q.Q.Q.Q.Q.Q.Q.Q.Q.Q.g.' N N N N N N N [ U.Q.Q.Q.Q.Q.Q.Q.",
"Q.Q.Q.Q.Q.Q.Q.E.n.H.&.X o o o % k r.W.Q.Q.Q.Q.Q.Q.Q.Q.Q.Q.Q.Q.N.D N N N N N N A N.Q.Q.Q.Q.Q.Q.Q.",
"Q.Q.Q.Q.Q.Q.Q.Q.Q.T.2 X o o % h h L U.Q.Q.Q.Q.Q.Q.Q.Q.Q.Q.Q.Q.Q.y.C N N N N N N w.Q.Q.Q.Q.Q.Q.Q.",
"Q.Q.Q.Q.Q.Q.Q.Q.Q.n.: o o # - h h -.Q.Q.Q.Q.Q.Q.Q.Q.Q.Q.Q.Q.Q.Q.U.[ N N N N N N [ U.Q.Q.Q.Q.Q.Q.",
"Q.Q.Q.Q.Q.Q.Q.Q.Q.4.+ o O = h h k v.Q.Q.Q.Q.Q.Q.Q.Q.Q.Q.Q.Q.Q.Q.Q.y.V M M V V N D A.Q.Q.Q.Q.Q.Q.",
"Q.Q.Q.Q.Q.Q.Q.Q.Q.,.X o & h h h J U.Q.Q.Q.Q.Q.Q.Q.Q.Q.Q.Q.Q.Q.Q.Q.B.~ R E W W n m N.Q.Q.Q.Q.Q.Q.",
"Q.Q.Q.Q.Q.Q.Q.Q.Q.$.X # h h h h I E.Q.Q.Q.Q.Q.Q.Q.Q.Q.Q.Q.Q.Q.Q.Q.L.) R R R R T E d.Q.Q.Q.Q.Q.Q.",
"Q.Q.Q.Q.Q.Q.Q.Q.Q.@.o * h h h h ;.Q.Q.Q.Q.Q.Q.Q.Q.Q.Q.Q.Q.Q.Q.Q.Q.I._ R R R R R R a.Q.Q.Q.Q.Q.Q.",
"Q.Q.Q.Q.Q.Q.Q.Q.Q.@.$ h h h h h ;.Q.Q.Q.Q.Q.Q.Q.Q.Q.Q.Q.Q.Q.Q.Q.Q.I._ R R R R R R a.Q.Q.Q.Q.Q.Q.",
"Q.Q.Q.Q.Q.Q.Q.Q.Q.$.* h h h h h U Q.Q.Q.m.S.Q.Q.Q.Q.Q.Q.Q.z.S.Q.Q.L.) R R R R R R d.Q.Q.Q.Q.Q.Q.",
"Q.Q.Q.Q.Q.Q.Q.Q.Q.>.h h h h h h K U.Q.Q.o.X.Q.Q.Q.Q.Q.Q.K.a q.Q.Q.Z./ T T R Q Q ! M.Q.Q.Q.Q.Q.Q.",
"Q.Q.Q.Q.Q.Q.Q.Q.Q.i.h h h h h l S N.Q.Q.h.t x.Q.Q.Q.Q.Q.9.y S.Q.Q.0.u q q u i F ^ Z.Q.Q.Q.Q.Q.Q.",
"Q.Q.Q.Q.Q.Q.Q.Q.Q.V.G h h h h v N w.Q.Q.Y...a z.E.Q.Y.q.r 7.Q.Q.K.a           7 f I.Q.Q.Q.Q.Q.Q.",
"Q.Q.Q.Q.Q.Q.Q.Q.Q.U.L h h h l B N D N.Q.Q.F...r d ..a r +.T.Q.Q.9..             o.Q.Q.Q.Q.Q.Q.Q.",
"Q.Q.Q.Q.Q.Q.Q.Q.Q.Q.:.h h h x N N N } P.Q.Q.Y.j.o...O.z.E.Q.Q.x.r             8 k.Q.Q.Q.Q.Q.Q.Q.",
"Q.Q.Q.Q.Q.Q.Q.Q.Q.Q.V.G h j v N N N N } P.Q.Q.Q.Q.Q.Q.Q.Q.Q.l.y               a K.Q.Q.Q.Q.Q.Q.Q.",
"Q.Q.Q.Q.Q.Q.Q.Q.Q.Q.E.U h l B N N N N V { d.I.Q.Q.Q.Q.Q.F.7.e               . 8.Q.Q.Q.Q.Q.Q.Q.Q.",
"Q.Q.Q.Q.Q.Q.Q.Q.Q.Q.Q.V.G g C N N N N Z R ! ` t.a.s.q.o.y .                 a G.Q.Q.Q.Q.Q.Q.Q.Q.",
"Q.Q.Q.Q.Q.Q.Q.Q.Q.Q.Q.Q.r.c N N N N N m R R R R Q p .                     9 k.Q.Q.Q.Q.Q.Q.Q.Q.Q.",
"Q.Q.Q.Q.Q.Q.Q.Q.Q.Q.Q.Q.U.} N N N N N n R R R R T u                     . +.E.Q.Q.Q.Q.Q.Q.Q.Q.Q.",
"Q.Q.Q.Q.Q.Q.Q.Q.Q.Q.W.Q.Q.A.[ N N N V W R R R Q Y 0                     o.Y.Q.Q.Q.Q.Q.Q.Q.Q.Q.Q.",
"Q.Q.Q.Q.Q.Q.Q.Q.Q.Q.Q.Q.Q.Q.A.} N N V W R R R Q F 7                 . o.K.Q.Q.Q.Q.Q.Q.Q.Q.Q.Q.Q.",
"Q.Q.Q.Q.Q.Q.Q.Q.Q.Q.Q.Q.Q.Q.Q.P.| C M E R R R Q p                 w 6.T.Q.Q.Q.Q.Q.Q.Q.Q.Q.Q.Q.Q.",
"Q.Q.Q.Q.Q.Q.Q.Q.Q.Q.Q.Q.Q.Q.Q.Q.R.f.] E R R R Q i             8 d l.Q.Q.Q.Q.Q.Q.Q.Q.Q.Q.Q.Q.Q.Q.",
"Q.Q.Q.Q.Q.Q.Q.Q.Q.Q.Q.Q.Q.Q.Q.Q.Q.Q.L.a.{ ( E Q i       7 r ..j.Y.Q.Q.Q.Q.Q.Q.Q.Q.Q.Q.Q.Q.Q.Q.Q.",
"Q.Q.Q.Q.Q.Q.Q.Q.Q.Q.Q.Q.Q.Q.Q.Q.Q.Q.Q.Q.T.Z.d.p.5.o.O.7.k.D.E.Q.Q.Q.Q.Q.Q.Q.Q.Q.Q.Q.Q.Q.Q.Q.Q.Q.",
"Q.Q.Q.Q.Q.Q.Q.Q.Q.Q.Q.Q.Q.Q.Q.Q.Q.Q.Q.Q.Q.Q.Q.Q.Q.Q.Q.Q.Q.Q.Q.Q.Q.Q.Q.Q.Q.Q.Q.Q.Q.Q.Q.Q.Q.Q.Q.Q.",
"Q.Q.Q.Q.Q.Q.Q.Q.Q.Q.Q.Q.Q.Q.Q.Q.Q.Q.Q.Q.Q.Q.Q.Q.Q.Q.Q.Q.Q.Q.Q.Q.Q.Q.Q.Q.Q.Q.Q.Q.Q.Q.Q.Q.Q.Q.Q.Q.",
"Q.Q.Q.Q.Q.Q.Q.Q.Q.Q.Q.Q.Q.Q.Q.Q.Q.Q.Q.Q.Q.Q.Q.Q.Q.Q.Q.Q.Q.Q.Q.Q.Q.Q.Q.Q.Q.Q.Q.Q.Q.Q.Q.Q.Q.Q.Q.Q.",
"Q.Q.Q.Q.Q.Q.Q.Q.Q.Q.Q.Q.Q.Q.Q.Q.Q.Q.Q.Q.Q.Q.Q.Q.Q.Q.Q.Q.Q.Q.Q.Q.Q.Q.Q.Q.Q.Q.Q.Q.Q.Q.Q.Q.Q.Q.Q.Q.",
"Q.Q.Q.Q.Q.Q.Q.Q.Q.Q.Q.Q.Q.Q.Q.Q.Q.Q.Q.Q.Q.Q.Q.Q.Q.Q.Q.Q.Q.Q.Q.Q.Q.Q.Q.Q.Q.Q.Q.Q.Q.Q.Q.Q.Q.Q.Q.Q.",
"Q.Q.Q.Q.Q.Q.Q.Q.Q.Q.Q.Q.Q.Q.Q.Q.Q.Q.Q.Q.Q.Q.Q.Q.Q.Q.Q.Q.Q.Q.Q.Q.Q.Q.Q.Q.Q.Q.Q.Q.Q.Q.Q.Q.Q.Q.Q.Q."
};
