/* XPM */
static char *_a54a91414224915ba64bca11e58fba5glr78AFhsBsuZvHA[] = {
/* columns rows colors chars-per-pixel */
"48 48 207 2 ",
"   c #FEFEFE",
".  c #130204",
"X  c #1C0305",
"o  c #160609",
"O  c #1C0609",
"+  c #16090C",
"@  c #1C0B0D",
"#  c #1C0E11",
"$  c #1D1215",
"%  c #1E161A",
"&  c #1F191E",
"*  c #250206",
"=  c #2C0307",
"-  c #240509",
";  c #2D0509",
":  c #230C0E",
">  c #330206",
",  c #3B0106",
"<  c #35040A",
"1  c #3A0309",
"2  c #340A0E",
"3  c #24100E",
"4  c #250D11",
"5  c #2A0D10",
"6  c #231114",
"7  c #2D1716",
"8  c #23151A",
"9  c #23191E",
"0  c #2B1818",
"q  c #2A191C",
"w  c #30141C",
"e  c #331C1C",
"r  c #3A1E1D",
"t  c #38211E",
"y  c #1C1D24",
"u  c #241D22",
"i  c #2A1D23",
"p  c #321D20",
"a  c #1D232C",
"s  c #1B2531",
"d  c #1D2937",
"f  c #232127",
"g  c #2B2126",
"h  c #24232B",
"j  c #2C252C",
"k  c #29282F",
"l  c #342223",
"z  c #3A2422",
"x  c #32252A",
"c  c #3A2329",
"v  c #35292D",
"b  c #3B2B2D",
"n  c #202630",
"m  c #232A35",
"M  c #2C2B33",
"N  c #232D3B",
"B  c #2B2E3A",
"V  c #312B33",
"C  c #342B32",
"Z  c #312F38",
"A  c #23303E",
"S  c #2C313D",
"D  c #32323B",
"F  c #3A3439",
"G  c #3C343A",
"H  c #460409",
"J  c #530309",
"K  c #5D0209",
"L  c #471418",
"P  c #54161D",
"I  c #6B0109",
"U  c #79030C",
"Y  c #6C0F19",
"T  c #6D141A",
"R  c #4D1A22",
"E  c #7A1E28",
"W  c #462926",
"Q  c #492E2B",
"!  c #4C312F",
"~  c #53332C",
"^  c #402E36",
"/  c #443334",
"(  c #4E3533",
")  c #463839",
"_  c #543632",
"`  c #563A36",
"'  c #5B3A35",
"]  c #553C3A",
"[  c #5B3E3A",
"{  c #603F38",
"}  c #63433D",
"|  c #69453F",
" . c #1D2F40",
".. c #1E3143",
"X. c #2A2F40",
"o. c #253444",
"O. c #2B3543",
"+. c #2D3846",
"@. c #223648",
"#. c #253A4C",
"$. c #2A3A4A",
"%. c #333641",
"&. c #343944",
"*. c #3B3D45",
"=. c #343D4A",
"-. c #263E53",
";. c #2A3E51",
":. c #453D41",
">. c #523F40",
",. c #37414E",
"<. c #2B4154",
"1. c #2C445A",
"2. c #2F495E",
"3. c #334353",
"4. c #3A4452",
"5. c #314658",
"6. c #334A5E",
"7. c #2F4C65",
"8. c #3D4E61",
"9. c #375268",
"0. c #3B556B",
"q. c #3A5C78",
"w. c #4A4449",
"e. c #54464A",
"r. c #584949",
"t. c #434B57",
"y. c #4B4A54",
"u. c #484B57",
"i. c #585458",
"p. c #694A44",
"a. c #734E45",
"s. c #6F5146",
"d. c #7A544C",
"f. c #685856",
"g. c #715955",
"h. c #7F5C53",
"j. c #495767",
"k. c #4C5F71",
"l. c #655C61",
"z. c #755F62",
"x. c #486576",
"c. c #566676",
"v. c #676B6A",
"b. c #707276",
"n. c #870711",
"m. c #8A0B14",
"M. c #9C0511",
"N. c #94151D",
"B. c #AA0513",
"V. c #A40916",
"C. c #A60D1A",
"Z. c #B90A18",
"A. c #8D2D2F",
"S. c #B82031",
"D. c #C70716",
"F. c #D70512",
"G. c #ED0415",
"H. c #E30618",
"J. c #F20516",
"K. c #FB0516",
"L. c #DE0E21",
"P. c #C01324",
"I. c #E20F24",
"U. c #855E56",
"Y. c #A3524C",
"T. c #8A6458",
"R. c #906459",
"E. c #92685C",
"W. c #AE675D",
"Q. c #966E61",
"!. c #9C6D62",
"~. c #9B786A",
"^. c #897071",
"/. c #A06F63",
"(. c #A67669",
"). c #B17D6F",
"_. c #B67F71",
"`. c #D17665",
"'. c #958078",
"]. c #AD8A75",
"[. c #BA8474",
"{. c #BA8676",
"}. c #B58D7D",
"|. c #C38C7C",
" X c #C8917F",
".X c #F78474",
"XX c #D7A27E",
"oX c #A97E87",
"OX c #7B8082",
"+X c #828C92",
"@X c #989393",
"#X c #BA9988",
"$X c #8E9BA6",
"%X c #B2A6A6",
"&X c #C39382",
"*X c #CA9884",
"=X c #D59D8B",
"-X c #CBAB96",
";X c #D8AB97",
":X c #E2AB96",
">X c #E8AE97",
",X c #E7B1A3",
"<X c #C8C1B6",
"1X c #EFCAB4",
"2X c #BDBFC2",
"3X c #D9D0C0",
"4X c #FCEBD1",
/* pixels */
"                                                                                                ",
"                                                                                                ",
"                                                                                                ",
"                                                                                                ",
"                      T R f h h & & % % $                                                       ",
"                  T N.M.m.c n 9 u u u & % $                                                     ",
"                  E.W.m.U P f % 9 u f & $ o                                                     ",
"                {.h.W H , 2 8 @ y 8 8 $ + $ o                                                   ",
"              |.(._ 7 O X . o o + . . . o @ .         G.J.J.K.G.                                ",
"            *X=XU.Q W e     . . . . . . . X .     J.K.K.K.K.K.K.K.                              ",
"            >X:X|.U.z z             $ u # o . U K.K.K.K.J.J.G.G.G.H.                            ",
"            :X:X|.(.p e             =.O.h 8 o J F.H.D.B.m.U U U                                 ",
"              :X&X/.}               <.3.M u @ X K I J H > =                                     ",
"                }.a.[               1.;.3.M $ O > > > > > J                                     ",
"                T.z                 -.7.$.O.h # * > > , I D.F.              d                   ",
"                                B $.;.1.2.$.S h % 8 w Y C.C.E %.#.=.u.@.......d a y             ",
"                                M +.$.7.1.#.o.o.X.d N X.B N o.B X.i.i.o.o.-.@.y y f y a a y     ",
"                                  5.o.9.q.1.<.j.^.l.@.d N o.o.O.B B O.O.N +.#.y y h y u a y f % ",
"                                  7.o.7.0.q.q.%X.X`.c.;.m s n M j %.%.k u h h u A & # u % % + # ",
"          ,.,.a % +               j.4.u.D 7.x.+X,XoXq.7.&.S N h u g g u u i ( D O.@ u h # . . + ",
"        ,.<.A & 3 + . { }.1X      t.0.q.%.u.c.y.c.x.9.<.o.*.f.&.B h p.*.X.i p B u $ h h % + y a ",
"      t.<.o.a t 0 t | ].*X#X'.  '.b.x.q.t.j.9.3.&.c.OX3.&.*.f.&.=.M p M =.i u j # M M f f y s s ",
"      5.A a 0 W 3 h.|.1X4X1X| d.].;X1X2X$Xk.#.6.4.i.b.3.+.B B D &.i 4 %.Z 9 V 8 u &.k u j h d s ",
"      5.s h ~ Q e ] U.-X4X}.| {.;Xp.*X1X1X,.u.8.9.u.=.=.&.D B D V 8 M D 9 V i 8 &.O.j j j m m m ",
"    ..#.+.v.Q.] W ~ T.1X].' d.Q.}.z p.R.g.b ) %.3.4.w.S %.%.Z Z i j Z i C M 0 ` &.D v x x j m m ",
"  4. .v.<X1X-Xs.t p.~.;XT.t } { Q.[ ( ] g.z >.e.g M / &.%.&.D C x D x [ G x c ] F x 0 q f g k n ",
"  5.-.OX;X:X].| p { r a. XQ.' W ` ( ' g.@Xr.%X@Xe.v v ) ,.%.v p.:.F b / b F C v j q 8 j x f n f ",
"  4.2.x.}.XXT.' w t r Q }.;Xs.~ ' L r ] z.e.w.e.G M F ) Z V v / c l 6 u %.&.C C C q g B 8 6 9 9 ",
"    ;.3.v.'.' ~ r 3 z ( [ } '     H K V.Z.N.( >.f.i.F t 6 6 7 4 O O O j D x D Z x i g M         ",
"      &.$.$.M p r @ @ o         C.K U D.L.E / q ,.y.x 3 . O - = < > < 2 e V C j i q g           ",
"        *.+.S h 3 @ @           D.B.C.C.I.S./ + M j t t . * < < 1 1 1 1 1 2 5 H m.Y             ",
"            D 9 9 o               H.  C.I.S./ i 8 9 0 : O * ; < < < 1 1 1 1 1 1 n.              ",
"                                  H.  P.Z.P x C g 6 e i i 6 O = < < < 1 1 1 < <                 ",
"                                        Z.H % Z j q Q i Z i X : 4 5 ; > < < < 2                 ",
"                                            5 i i i V j &.i 6 V j k 8 - - = ; ;                 ",
"                                                    Z ,.4.M j &.V Z 8 9 q 2 =                   ",
"                                                        %.V V &.B D i u R M.U                   ",
"                                                            Z &.M i g M E Z.A.R.(./.R.          ",
"                                                                    g M J M.Y.&X{.(./.|         ",
"                                                                            Y.|.*X|._.a.        ",
"                                                                              (.{.[.{.|         ",
"                                                                                !.!.).{         ",
"                                                                                                ",
"                                                                                                ",
"                                                                                                ",
"                                                                                                ",
"                                                                                                ",
"                                                                                                "
};
