/* XPM */
static char *a614b091c05a474cdec483ac92e249baKTOo3QA2bK18SPnQ[] = {
/* columns rows colors chars-per-pixel */
"48 48 207 2 ",
"   c None",
".  c #130204",
"X  c #1C0305",
"o  c #160609",
"O  c #1C0609",
"+  c #16090C",
"@  c #1C0B0D",
"#  c #1C0E11",
"$  c #1D1215",
"%  c #1E161A",
"&  c #1F191E",
"*  c #250206",
"=  c #2C0307",
"-  c #240509",
";  c #2D0509",
":  c #230C0E",
">  c #330206",
",  c #3B0106",
"<  c #35040A",
"1  c #3A0309",
"2  c #340A0E",
"3  c #24100E",
"4  c #250D11",
"5  c #2A0D10",
"6  c #231114",
"7  c #2D1716",
"8  c #23151A",
"9  c #23191E",
"0  c #2B1818",
"q  c #2A191C",
"w  c #30141C",
"e  c #331C1C",
"r  c #3A1E1D",
"t  c #38211E",
"y  c #1C1D24",
"u  c #241D22",
"i  c #2A1D23",
"p  c #321D20",
"a  c #1D232C",
"s  c #1B2531",
"d  c #1D2937",
"f  c #232127",
"g  c #2B2126",
"h  c #24232B",
"j  c #2C252C",
"k  c #29282F",
"l  c #342223",
"z  c #3A2422",
"x  c #32252A",
"c  c #3A2329",
"v  c #35292D",
"b  c #3B2B2D",
"n  c #202630",
"m  c #232A35",
"M  c #2C2B33",
"N  c #232D3B",
"B  c #2B2E3A",
"V  c #312B33",
"C  c #342B32",
"Z  c #312F38",
"A  c #23303E",
"S  c #2C313D",
"D  c #32323B",
"F  c #3A3439",
"G  c #3C343A",
"H  c #460409",
"J  c #530309",
"K  c #5D0209",
"L  c #471418",
"P  c #54161D",
"I  c #6B0109",
"U  c #79030C",
"Y  c #6C0F19",
"T  c #6D141A",
"R  c #4D1A22",
"E  c #7A1E28",
"W  c #462926",
"Q  c #492E2B",
"!  c #4C312F",
"~  c #53332C",
"^  c #402E36",
"/  c #443334",
"(  c #4E3533",
")  c #463839",
"_  c #543632",
"`  c #563A36",
"'  c #5B3A35",
"]  c #553C3A",
"[  c #5B3E3A",
"{  c #603F38",
"}  c #63433D",
"|  c #69453F",
" . c #1D2F40",
".. c #1E3143",
"X. c #2A2F40",
"o. c #253444",
"O. c #2B3543",
"+. c #2D3846",
"@. c #223648",
"#. c #253A4C",
"$. c #2A3A4A",
"%. c #333641",
"&. c #343944",
"*. c #3B3D45",
"=. c #343D4A",
"-. c #263E53",
";. c #2A3E51",
":. c #453D41",
">. c #523F40",
",. c #37414E",
"<. c #2B4154",
"1. c #2C445A",
"2. c #2F495E",
"3. c #334353",
"4. c #3A4452",
"5. c #314658",
"6. c #334A5E",
"7. c #2F4C65",
"8. c #3D4E61",
"9. c #375268",
"0. c #3B556B",
"q. c #3A5C78",
"w. c #4A4449",
"e. c #54464A",
"r. c #584949",
"t. c #434B57",
"y. c #4B4A54",
"u. c #484B57",
"i. c #585458",
"p. c #694A44",
"a. c #734E45",
"s. c #6F5146",
"d. c #7A544C",
"f. c #685856",
"g. c #715955",
"h. c #7F5C53",
"j. c #495767",
"k. c #4C5F71",
"l. c #655C61",
"z. c #755F62",
"x. c #486576",
"c. c #566676",
"v. c #676B6A",
"b. c #707276",
"n. c #870711",
"m. c #8A0B14",
"M. c #9C0511",
"N. c #94151D",
"B. c #AA0513",
"V. c #A40916",
"C. c #A60D1A",
"Z. c #B90A18",
"A. c #8D2D2F",
"S. c #B82031",
"D. c #C70716",
"F. c #D70512",
"G. c #ED0415",
"H. c #E30618",
"J. c #F20516",
"K. c #FB0516",
"L. c #DE0E21",
"P. c #C01324",
"I. c #E20F24",
"U. c #855E56",
"Y. c #A3524C",
"T. c #8A6458",
"R. c #906459",
"E. c #92685C",
"W. c #AE675D",
"Q. c #966E61",
"!. c #9C6D62",
"~. c #9B786A",
"^. c #897071",
"/. c #A06F63",
"(. c #A67669",
"). c #B17D6F",
"_. c #B67F71",
"`. c #D17665",
"'. c #958078",
"]. c #AD8A75",
"[. c #BA8474",
"{. c #BA8676",
"}. c #B58D7D",
"|. c #C38C7C",
" X c #C8917F",
".X c #F78474",
"XX c #D7A27E",
"oX c #A97E87",
"OX c #7B8082",
"+X c #828C92",
"@X c #989393",
"#X c #BA9988",
"$X c #8E9BA6",
"%X c #B2A6A6",
"&X c #C39382",
"*X c #CA9884",
"=X c #D59D8B",
"-X c #CBAB96",
";X c #D8AB97",
":X c #E2AB96",
">X c #E8AE97",
",X c #E7B1A3",
"<X c #C8C1B6",
"1X c #EFCAB4",
"2X c #BDBFC2",
"3X c #D9D0C0",
"4X c #FCEBD1",
/* pixels */
"                                  % # + a s s m m n f 9                                         ",
"                                  f + . y s d m m k n 9                                         ",
"                                y y % . + y h m j g f 6                                         ",
"                                a a % # % f j j x f x 8                                         ",
"                                a u u h h f u j x q j B M                   | a.| {             ",
"                                y y # u h M k j v 0 8 g g g               R./._.{.).            ",
"                              y f h & @ $ M &.O.D x q q i q Y             /.(.|.{.!.            ",
"                              a y y A O.u # u &.&.F j C x i m.n.          (.{.*X[.!.            ",
"                              d y y u D B j 8 8 ` ] v C Z j H 1 < 2 ;     R.&X|.(.              ",
"                            d ..@.#.h ( p u V i 0 c C C D C 5 1 < < ; = U A.Y.Y.                ",
"                              ..-.+.h i i i 9 V M x F &.x V 2 1 1 < = 2 M.Z.M.                  ",
"                              ..o.N u u X.=.Z 9 C G b %.D e 1 1 1 < - q R E J                   ",
"                              @.o.O.k u *.M %.D i [ / u j 2 1 1 1 > - 9 u M M                   ",
"                              u.i.O.%.g p.p 4 M Z x b 6 O < 1 1 < ; 8 8 i g g                   ",
"                    H.        =.i.B %.g h M i 8 j D F l O > 1 < < 5 k Z D i                     ",
"                  K.G.        #.X.B j u B =.&.V i x :.c O < 1 < < 4 j V B M                     ",
"                G.K.G.U       %.B O.M h &.&.D D Z C p./ 4 = < < = : V &.&.&.                    ",
"                K.K.G.U     F.E O.o.n N f.f.B B Z D v v 0 - < ; O X 6 j V Z                     ",
"                J.K.J.U = J D.C.N o.s S *.*.B D %.&.%.V 6 O * * 6 i i M V                       ",
"                J.K.J.m.> > I C.B N m +.O.+.+.&.%.%.,.Z 6 . . O i Z &.4.%.                      ",
"                G.K.K.B.H > , Y X.d ;.7.<.3.3.=.S &.) ) t 3 t 3 i i j ,.                        ",
"                  K.K.D.J > > w N @.c.q.9.OXb.=.w./ v F F x t 0 e Q V Z                         ",
"                  J.K.H.I > > 8 d l.`.oXx.c.i.u.4.M v M i.u.j 9 6 q i                           ",
"                    K.F.K > * % X.^..X,Xc.&.4.9.,.g e.G f.,.M 8 g j i                           ",
"                    U J X O # h o.j.%X+Xy.3.6.8.D e.@Xe.] e + i C Z i                           ",
"              o . . . o @ $ h S o.-.q.k.c.9.;.u.) e.%Xw.( / G / x % 5                           ",
"          $ o $ @ X o 8 u M O.$.#.1.q.7.y.j.k.:.b t r.e.N.E S.S.P H                             ",
"        $ % $ + o . # h M 3.$.6.1.q.0.%.%.t.$X3Xg.g.@Xz.Z.L.I.I.Z.Z.                            ",
"        % & & $ . . u O.3.;.7.1.7.9.7.u.q.q.2X1XE.` g.] V.D.C.C.P.                              ",
"        % u f 8 . . $ =.<.1.-.;.$.o.o.4.0.x.1X*Xp.( ` r K U C.                                  ",
"        & u u 8 . .           $.+.5.7.j.t.b.;Xp.z [ ! L H K B.H.H.                              ",
"        & u 9 y + .           B M         '.].;X}.Q.` '   C.D.                                  ",
"        h 9 % @ o .                         d.{.Q.{ W ~                                         ",
"        h n f 8 o .                       '.| | d.} ' s.'                                       ",
"        f c P 2 .                       1X#X1X}.' t Q.;X}                                       ",
"        R m.U , X                       }.*X4X4X].T. X}.[                                       ",
"        T M.m.H O e z e                 { ].1X-X1X;Xa.Q ( o                                     ",
"          N.W.W 7 W z p } [             . | |.U.T.~.r r z @ @                                   ",
"          T E.h._ Q U.(./.a.z         + + t h.] ~ p.{ t 3 @ @ o                                 ",
"              {.(.U.|.|.&X}.T.        % 3 0 3 e W t p w r r 3 9                                 ",
"                |.=X:X:X:X            a & t W Q ] s.| ' ~ p h 9                                 ",
"                  *X>X:X              ,.A a 0 ~ Q.-X].T.' M S D                                 ",
"                                      ,.<.o.a h v.1X:XXX'.$.+.                                  ",
"                                        ,.<.A s +.<X;X}.v.$.*.                                  ",
"                                          t.5.5.#.v.OXx.3.&.                                    ",
"                                                .. .-.2.;.                                      ",
"                                                  4.5.4.                                        ",
"                                                                                                "
};
