/* XPM */
static char *_bee4aba87794a3dcddd77aaf7f550f1LvVvSLALkgk7wM5Y[] = {
/* columns rows colors chars-per-pixel */
"48 48 236 2 ",
"   c #030105",
".  c #0D0102",
"X  c #05030A",
"o  c #0B0A0D",
"O  c #0A090A",
"+  c #130202",
"@  c #1A0C0B",
"#  c #160708",
"$  c #1C110A",
"%  c #0C0C12",
"&  c #070612",
"*  c #130E12",
"=  c #1B0C14",
"-  c #0D1215",
";  c #0A161B",
":  c #151215",
">  c #1B1413",
",  c #15151A",
"<  c #1A151B",
"1  c #151B1A",
"2  c #1C1B1D",
"3  c #131917",
"4  c #250409",
"5  c #24160D",
"6  c #260B14",
"7  c #241413",
"8  c #2B1512",
"9  c #231D1C",
"0  c #2B1D1C",
"q  c #261817",
"w  c #361A19",
"e  c #300111",
"r  c #1E201F",
"t  c #2D221D",
"y  c #26211B",
"u  c #34231B",
"i  c #3A261E",
"p  c #1D1D22",
"a  c #1B1823",
"s  c #211D22",
"d  c #2B1D24",
"f  c #281E29",
"g  c #391A26",
"h  c #1D2222",
"j  c #1C272B",
"k  c #1F3435",
"l  c #232325",
"z  c #2B2424",
"x  c #24242A",
"c  c #2B262B",
"v  c #252A2B",
"b  c #2C2B2D",
"n  c #272926",
"m  c #332424",
"M  c #342A24",
"N  c #3C2C24",
"B  c #33252B",
"V  c #342C2C",
"C  c #3C2C2C",
"Z  c #3B2428",
"A  c #2E302D",
"S  c #3D332C",
"D  c #37322B",
"F  c #2C2C32",
"G  c #282A35",
"H  c #332D32",
"J  c #3B2D33",
"K  c #302E39",
"L  c #2D3232",
"P  c #2B3939",
"I  c #333234",
"U  c #3B3334",
"Y  c #34343A",
"T  c #3B343A",
"R  c #363A3A",
"E  c #3C3A3C",
"W  c #393936",
"Q  c #470419",
"!  c #441726",
"~  c #561A2A",
"^  c #4B0C21",
"/  c #442929",
"(  c #45322D",
")  c #4A2B35",
"_  c #562836",
"`  c #423433",
"'  c #493634",
"]  c #443A34",
"[  c #4B3C36",
"{  c #43353A",
"}  c #433B3C",
"|  c #4B3B3B",
" . c #4B353B",
".. c #513C3D",
"X. c #553838",
"o. c #522B2D",
"O. c #64323E",
"+. c #672A3A",
"@. c #38413E",
"#. c #4D423D",
"$. c #494139",
"%. c #52433B",
"&. c #5B423D",
"*. c #3C3C43",
"=. c #363B44",
"-. c #443D42",
";. c #4B3D42",
":. c #4C3747",
">. c #563944",
",. c #462F41",
"<. c #693A49",
"1. c #753B4C",
"2. c #6C3246",
"3. c #3A4747",
"4. c #444144",
"5. c #4C4344",
"6. c #44444C",
"7. c #4B444A",
"8. c #4C494C",
"9. c #494A49",
"0. c #534444",
"q. c #594C44",
"w. c #52454B",
"e. c #5B444A",
"r. c #544B4B",
"t. c #5B4C4C",
"y. c #574645",
"u. c #57514B",
"i. c #4C4C53",
"p. c #474753",
"a. c #534B52",
"s. c #5A4D52",
"d. c #544A58",
"f. c #4F525B",
"g. c #5B5355",
"h. c #54535B",
"j. c #5C535A",
"k. c #5D595B",
"l. c #575456",
"z. c #68484C",
"x. c #63544C",
"c. c #6B554F",
"v. c #634D54",
"b. c #6B4C53",
"n. c #764955",
"m. c #635354",
"M. c #695553",
"N. c #64555B",
"B. c #645A5C",
"V. c #6B5A5B",
"C. c #695956",
"Z. c #745959",
"A. c #72434D",
"S. c #6E615C",
"D. c #74625D",
"F. c #5B5B64",
"G. c #585963",
"H. c #635B61",
"J. c #6A5D63",
"K. c #625C67",
"L. c #755B63",
"P. c #794E62",
"I. c #5F6169",
"U. c #646266",
"Y. c #6C6364",
"T. c #63636C",
"R. c #6B656A",
"E. c #6C686B",
"W. c #746364",
"Q. c #746A6C",
"!. c #786867",
"~. c #7E706B",
"^. c #6C6C73",
"/. c #696875",
"(. c #756D74",
"). c #6E707C",
"_. c #747175",
"`. c #7C7373",
"'. c #73727C",
"]. c #7D757B",
"[. c #7A787C",
"{. c #854D5C",
"}. c #875C65",
"|. c #9E5B6D",
" X c #856C68",
".X c #886A75",
"XX c #867878",
"oX c #967778",
"OX c #906C71",
"+X c #9A817C",
"@X c #8E847A",
"#X c #7A7A84",
"$X c #787985",
"%X c #827D84",
"&X c #877D86",
"*X c #9A7982",
"=X c #88848A",
"-X c #948283",
";X c #97878C",
":X c #8B8A93",
">X c #8C8E9C",
",X c #868792",
"<X c #978D96",
"1X c #8F929C",
"2X c #99969C",
"3X c #A58A8A",
"4X c #AC918E",
"5X c #A78B93",
"6X c #BC8D97",
"7X c #A59395",
"8X c #AA9797",
"9X c #B7979A",
"0X c #999AA6",
"qX c #A79DA5",
"wX c #B79CA1",
"eX c #9FA0A5",
"rX c #A8A3AA",
"tX c #B6A6A8",
"yX c #ABACB4",
"uX c #B8AEB2",
"iX c #B4B3BB",
"pX c #C5A6A8",
"aX c #C5B6BB",
"sX c #D0B1B3",
"dX c #C69EA9",
"fX c #B9BBC6",
"gX c #C4BBC2",
"hX c #D5BBC2",
"jX c #BCC2CB",
"kX c #CBCFD3",
"lX c #D5CCD0",
"zX c #CFC7CC",
"xX c #EDCACF",
"cX c #DEE1E8",
"vX c #E6E5ED",
"bX c #EBEEF5",
/* pixels */
"C V M U [ #.%.| %.| t.t.5.r.{ E.aX;X:.m u.8.u.9.$.9.H G d.$X$XfXfXf.; p.$X$X$X$X$X0X0Xp.=., p % ",
"] U S ] | [ [ [ [ #.] ] 5.V Y.R.&Xv.-.| #.A 9.n E E J p.<X&X>X$X$X=.0XG.=.$X$X$X0XG.G j R j ; G ",
"0.5.#.#.0.#.[ [ #.| ] } t w.r.s.T :.s.E I E [.8.9.E -.J G.fX>Xp.=.G.I.).=.>XfX=.>X>XG.$Xi.G L v ",
"r.q.t.t.t.q.q.y.0.M.t.0.y.} r.H T T 7.4.W D 9.r.0.~.J.-.a $Xp.=.I.G.=.3.$X0XyXG.$XfX$Xp.=.G.h i.",
"t.t.s.m.x.M.C.M.M.C.S.J.!.r.w.H.1X:XU.Y T l.0 . # + = s.a G $X=.p.a /.G.I.fXfX$X$XyX0X$XG.G.6.Y ",
"g.m.C.M.C.V.W.Z.!.t.!.`.g.J.;.rXgXrXfXrXE # + q  . .w . d.a p.G =.yX0X).I.>X$Xf.f.G j & j I.K O ",
"t.v.m.m.M.V.V.!.Z.V.B.N.s.7.2XrX$X0XT.*.d.d >.5X9X5X*X) ,.B :.f.G.$X$Xp.p.=.G.$X$X>X=.a =.G.p.=.",
"| 0.t.y.e.m.V.V.m.m.N.r.B XXgXqX0X).:XrXE.# Z.Z.6X}.z.wXg = *./.T.h.=.G./.$X<X>X$X$X=.=., =.K.a ",
"B w.v.y.e.!.m.C.W.0.s.N.< B J.=X2X0X>X].# 6  XA.OXsX|.dX*X= v.&XyXfXrXF.*.,X0X#XF.G & & Y Y U.2 ",
"` e.s.5.v.~.e.m.V.Y.(.I s 2 % *.).$XH.:.= # n.n.|.{.6XxXdX.XK.&XU.T.E #X,XT.>XG.G.6.3.%X^., I.n ",
"{ t.;.Z 0.Q.| { !.&Xr.s b Y h   d.j.f d.J # n.sX6Xo.<.}.6X5X5Xj.6.F K T.,XK.a & K.p.i.b ^.W U.@.",
",.J.j.J N.;XV.B.].XXs z l x a P $XK.:.T Z v...6X|.A.OXOX.X>.L.f c -.x U.#Xp.f f.G.f.*.k.G 3 U.Y ",
"(.=XR.w.N.Q.5.5.s.} b T Y j v vX(.G.,.c -.=Xm.b.o.}.}.hX5X6 (.&X%XT.  F.G.f p.,Xp.%XT.h.r : l.9.",
"w.j.J w.H.m.0.Y.k.W T F x p ).cXqX,.f E S.`.q.e.w z.z.+ >.<X.Xd.c h.& #X-., '.K   ,XyXf Y   2 E.",
"N.H.H H.].B.B.Y.c 9 o % O L fXf.bXE.h.L E 8X$ 7 y.8 # ) hX;Xd.'.^.-.i./.F.#X'.K ,X%XY x l X l l.",
"j.R.H N.Q.j.k.4.* b I R v f.0X% 1X0X*.k.c XX{ 7 s.7XL.5XfXwXH.%XB X F.&X/.K a E.vX$X*.c r.l.T k.",
"w.R.z r.R.l.8.l Y I G , =.,XiX,XjXbXf.*.:.*Xb.6 Z qX;X=XrXaX-Xw.m.].&X].(.x I ,X^._.g.w.7.w.= j.",
"` l.;.l.R.i.E F I x x h G.yXvXkXrXkXyXw.<.>.) N.` < eX2XzXgXd :.P.OX5X5X;XuX=XkXrX`.N.* T = 9 ,.",
";.a.7.r.H.B.b H h p x a J i.f.=.=.G.s.g g 6 ..:.J -.4.i.K.d.N.>.2.<.o.>.J.;XE.Y.].J.J.J ;.V V U ",
";.r.U 8.8.k., 2 h a f G K , f =.6.a g Z  .b.>.J :.| H F G d.:.<._ 2.1.+.z.g J.J.J.N.XX`.M.B.9 O ",
"a.{ c U.R.V % x G G v p K G f a T J g ) n.Z . B { w.=.R L 3.w.P.^ Q {.~ <. .L.-Xt.m XXs.Y.`.l.@.",
"{ 5.T { l.-.h.x   , G a c G G * =  .e 2.>.g > l . B i.G 3.p.,._ Q 2.1.1.g  .z.!.C @ W.C 9 V D A ",
"r.d # T 8.-._.[.'.l   : K x a X q 6 ~ 2.4 s.l l B . a j 3.=.,.! 1.|.~ 2.o.X...w 8 m !.C.q 9 y y ",
"` ;.J s.V &XiXiXiX0X%X*.% X a 9 * 4 +.~ g B W R J d G G.k G :.<.n.n.<.! _  ...| q Z s.V.M y z   ",
";.d 5.Y.H.Q.g.uXV 2X7.:X=X9.a = + 4 1.~ Z q 3.E J ,.i.; ; k ;.<._ _ X.) d ` N r.-X| x.t.%.S t 9 ",
"v.d x.XX`.> #.:Xl.k.<X7.:XU.qXJ.w 4 1.+.) 9 n 3.-.B   % @.=.B { ) Z e.` q z b H XX!.!.V...C S # ",
"XXu ;XaX;X$ 5.5.r.5.gXXXQ.XX<XuX8Xb._ w  .E h P B J.:.6.P G :.(.N.J 7.I x R u.$.r.g.t.e.%.0.] 7 ",
"z.8 4XtXC.0 ] } Q.:X$.-XN.d . s.Z.Z.2.w ( { h b ,.qXj.p P P -.7XB.b I h , A 4.4.E C | ..y.C.S ( ",
"%.( 4X4XM.[ ` t t.@ 5.lXuX;.z 7 6 e.X./ C H b H B T U T Y L b M c F Y v r W P 9.5.} q.y. .[ 7 ` ",
"&.N +XsXM.u x.. S m m.aXtXC y.#.J.V. .Z U T I H J J U E W W A I F -.-.x - v - : E 0.| | C 0 d m ",
"&.i 9XsXX.4 XX' c.S D.tXZ.m.| .X;XN.a.U H T c J f d.} { y n D A 7.K Y h p =.E $.U } { { ` C { S ",
"o./  X X[ w i 8 &./ !.tX*Xy...-XpXm.H.c s -.K T -.iXg.U U A A =XE.c Y h O X x T U B g. .C m 0 | ",
"8 &. X+X&.i +X+Xc.&.xXxX9X&.$.+X5XW.,.H b I I v Y 4.7.I I H F ^.7.*.I %   1 x c T z r.5.Z C u [ ",
"5 &.8XwX&.i sX+Xc.o.4X+X@X%.[ +X;Xv.C B H L L L b W *.I T I s p I n p x   O 2 x H U Y.~.q ( ( q.",
"i (  X~.i Q +Xc.o.o.+X+XM.' i q.L.e.` B l A Y v 2 x H 4.7.Y F F E G s b   o b 4.-.B Q.tX` u / !.",
"5 %.D.D.N w }.c.&.o. XX./ ( ( y.!.s.{ V n A L v p I < s 4.6.8.4.Y s L b   a H I { > } C.u 8 8 + ",
"# S x.x.5 i c. Xo.w  X XZ.N  .!.hXJ.d H R v v Y n _.7.o s *.6.*.8.2 *.,   l b b z U g.C.%.[ M.Z.",
"$ S x.&.# %.@X+Xi &.pXsX4X' ..!.uXm.s V R n h L p [.E.c , p b 8._.b W o o p I E } H M #.` m %.[ ",
"5 %.@X@Xu &.@X@X[ X.D. XM...c.C.L.5.V H A v v h l F I c c s 2 K 9.b F < < 9 F l 9 V $.9.( y x.[ ",
"5 @.$.u $ u u N u 5 i [ ( N C Z M.} U W R I v h b 2 H H c v , p n W l 2 , x 4.l I > S.@XD.4 D.x.",
"O u u.u.# N x.C.u (  X@X~.N S m.qXu.V E R A v 3 p x H s b x x 2 < V I p   v b H z z g.Q.S.$ x.x.",
"$ S u.%.# $.S.~.N ( ~.D.D.] ] 0.`.{ 2 r A R v o b * = s H x v x - y b > x $.2 I T D q.u.S.5 %.%.",
"$ $.%.$.# D %.q.5 y %.$.] z t y g.U 2 3 h n h : , _.^.= : s h v (.b   n W b n 2 > t r.q.x.5 N %.",
"$ S $.$.$ @.W #.y N u.$.#.U T } g.} n l h 1 3 v , Y.s.o p p : l _.z 5.9.: 9 y r : W S.k.c.@.N S.",
"] r.0.5.M 0.$.u.M D u.u.r.5.4.8.u.T 2 r A n h n l * 2 9 s < h - * > E Q.$.3 W r $ M @.M $.M 5 $.",
"y C C M @ t > y > : b D I b s x @.b r r h v x p p < H f < , x X   z l y ~.u.o n y @.S D %.$.5 $.",
"# Z { U > U U ] > y W R I F l b 4.A n h 1 1 h 2 2 < = < F a : - 9 I I 9 3 @.E.O y u.u.q.q.%.i %.",
"d w.m.} > q.g.g.1 W l.l.-.W Y 6._.A 3 j h 1 p p 2 * d a 2 , h % b z z y y O @.u.n u.%.$.$.$.i %."
};
