/* XPM */
static char *_6018424a08d43f797186b8502027787v5HsqzlxuYCxOUkE[] = {
/* columns rows colors chars-per-pixel */
"48 48 207 2 ",
"   c None",
".  c #130204",
"X  c #1C0305",
"o  c #160609",
"O  c #1C0609",
"+  c #16090C",
"@  c #1C0B0D",
"#  c #1C0E11",
"$  c #1D1215",
"%  c #1E161A",
"&  c #1F191E",
"*  c #250206",
"=  c #2C0307",
"-  c #240509",
";  c #2D0509",
":  c #230C0E",
">  c #330206",
",  c #3B0106",
"<  c #35040A",
"1  c #3A0309",
"2  c #340A0E",
"3  c #24100E",
"4  c #250D11",
"5  c #2A0D10",
"6  c #231114",
"7  c #2D1716",
"8  c #23151A",
"9  c #23191E",
"0  c #2B1818",
"q  c #2A191C",
"w  c #30141C",
"e  c #331C1C",
"r  c #3A1E1D",
"t  c #38211E",
"y  c #1C1D24",
"u  c #241D22",
"i  c #2A1D23",
"p  c #321D20",
"a  c #1D232C",
"s  c #1B2531",
"d  c #1D2937",
"f  c #232127",
"g  c #2B2126",
"h  c #24232B",
"j  c #2C252C",
"k  c #29282F",
"l  c #342223",
"z  c #3A2422",
"x  c #32252A",
"c  c #3A2329",
"v  c #35292D",
"b  c #3B2B2D",
"n  c #202630",
"m  c #232A35",
"M  c #2C2B33",
"N  c #232D3B",
"B  c #2B2E3A",
"V  c #312B33",
"C  c #342B32",
"Z  c #312F38",
"A  c #23303E",
"S  c #2C313D",
"D  c #32323B",
"F  c #3A3439",
"G  c #3C343A",
"H  c #460409",
"J  c #530309",
"K  c #5D0209",
"L  c #471418",
"P  c #54161D",
"I  c #6B0109",
"U  c #79030C",
"Y  c #6C0F19",
"T  c #6D141A",
"R  c #4D1A22",
"E  c #7A1E28",
"W  c #462926",
"Q  c #492E2B",
"!  c #4C312F",
"~  c #53332C",
"^  c #402E36",
"/  c #443334",
"(  c #4E3533",
")  c #463839",
"_  c #543632",
"`  c #563A36",
"'  c #5B3A35",
"]  c #553C3A",
"[  c #5B3E3A",
"{  c #603F38",
"}  c #63433D",
"|  c #69453F",
" . c #1D2F40",
".. c #1E3143",
"X. c #2A2F40",
"o. c #253444",
"O. c #2B3543",
"+. c #2D3846",
"@. c #223648",
"#. c #253A4C",
"$. c #2A3A4A",
"%. c #333641",
"&. c #343944",
"*. c #3B3D45",
"=. c #343D4A",
"-. c #263E53",
";. c #2A3E51",
":. c #453D41",
">. c #523F40",
",. c #37414E",
"<. c #2B4154",
"1. c #2C445A",
"2. c #2F495E",
"3. c #334353",
"4. c #3A4452",
"5. c #314658",
"6. c #334A5E",
"7. c #2F4C65",
"8. c #3D4E61",
"9. c #375268",
"0. c #3B556B",
"q. c #3A5C78",
"w. c #4A4449",
"e. c #54464A",
"r. c #584949",
"t. c #434B57",
"y. c #4B4A54",
"u. c #484B57",
"i. c #585458",
"p. c #694A44",
"a. c #734E45",
"s. c #6F5146",
"d. c #7A544C",
"f. c #685856",
"g. c #715955",
"h. c #7F5C53",
"j. c #495767",
"k. c #4C5F71",
"l. c #655C61",
"z. c #755F62",
"x. c #486576",
"c. c #566676",
"v. c #676B6A",
"b. c #707276",
"n. c #870711",
"m. c #8A0B14",
"M. c #9C0511",
"N. c #94151D",
"B. c #AA0513",
"V. c #A40916",
"C. c #A60D1A",
"Z. c #B90A18",
"A. c #8D2D2F",
"S. c #B82031",
"D. c #C70716",
"F. c #D70512",
"G. c #ED0415",
"H. c #E30618",
"J. c #F20516",
"K. c #FB0516",
"L. c #DE0E21",
"P. c #C01324",
"I. c #E20F24",
"U. c #855E56",
"Y. c #A3524C",
"T. c #8A6458",
"R. c #906459",
"E. c #92685C",
"W. c #AE675D",
"Q. c #966E61",
"!. c #9C6D62",
"~. c #9B786A",
"^. c #897071",
"/. c #A06F63",
"(. c #A67669",
"). c #B17D6F",
"_. c #B67F71",
"`. c #D17665",
"'. c #958078",
"]. c #AD8A75",
"[. c #BA8474",
"{. c #BA8676",
"}. c #B58D7D",
"|. c #C38C7C",
" X c #C8917F",
".X c #F78474",
"XX c #D7A27E",
"oX c #A97E87",
"OX c #7B8082",
"+X c #828C92",
"@X c #989393",
"#X c #BA9988",
"$X c #8E9BA6",
"%X c #B2A6A6",
"&X c #C39382",
"*X c #CA9884",
"=X c #D59D8B",
"-X c #CBAB96",
";X c #D8AB97",
":X c #E2AB96",
">X c #E8AE97",
",X c #E7B1A3",
"<X c #C8C1B6",
"1X c #EFCAB4",
"2X c #BDBFC2",
"3X c #D9D0C0",
"4X c #FCEBD1",
/* pixels */
"                                                                                                ",
"                                                                                                ",
"                                                                                                ",
"                                                                                                ",
"                                                                                                ",
"                                                                                                ",
"        [ _.!.!.                                                                                ",
"        | [.[.[.(.                                                                              ",
"        a.[.|.*X|.Y.                                                                            ",
"        | /.(.[.&XY.M.J M g                                                                     ",
"          R./.(.R.A.Z.E M g i M &.Z                                                             ",
"                  U M.R u i D B &.V V %.                                                        ",
"                  = 2 q 9 8 Z V &.j M 4.,.Z                                                     ",
"                ; ; = - - 8 k j V 6 i &.j V i i i 5                                             ",
"                2 < < < > ; 5 4 : X i Z i Q q j Z % H Z.                                        ",
"                < < 1 1 1 < < < = O 6 i i e 6 g C x P Z.P.  H.                                  ",
"              n.1 1 1 1 1 1 < < < ; * O 3 0 9 8 i / S.I.C.  H.              o 9 9 D             ",
"            Y m.H 5 2 1 1 1 1 1 < < * . t t j M + ^ S.I.C.C.B.D.          @ @ 3 h S +.*.        ",
"          g q i j V V e 2 < > < = - O . 3 x y.,.p / E L.D.U K C.        o @ @ r p M $.$.&.      ",
"        M g i x Z D x D j O O O 4 0 6 6 t F i.f.>.! N.Z.V.K H     ' } [ ( z 3 r ~ ' '.v.3.;.    ",
"9 u 4 8 B g q C C C &.%.u 6 l c / v V Z ) F M G e.w.e.z.] r L ' ~ s.;X}.Q r t w ' T.XX}.x.6.4.  ",
"h h f j j 8 q j v C F b / b F :.p.v %.,.) v v e.@X%Xr.@Xg.` ! ` W ' Q.&Xa.r { e | ].:X;XOX-.5.  ",
"n k g f q 0 x F ] c x G [ x D x C D &.%.&./ M g e.>.z g.` ( [ Q.{ } t T.;X~.p.t s.-X1X<Xv. .4.  ",
"m m j x x v D &.` 0 M C i Z j i Z Z %.%.S w.4.,.%.) b g.E.p.z }.Q.d.' ].1XT.~ W ] Q.v.+.#...    ",
"m m m j j j O.&.8 i V 8 D M 8 V D B D &.=.=.u.9.8.y.) 3X1X#Xp.;X[.p.}.4X-XU.] e ! ~ h s 5.      ",
"s d h j u k &.u 8 V u Z %.4 i &.D B B +.3.b.i.4.7.;.x.$X3X1X;X].d.| 1X4X1X|.h.3 W 0 a A 5.      ",
"s s y f f M M # j u i =.M p M =.&.f.*.+.3.OXc.&.3.9.j.t.q.x.b.^.  '.#X*X].| r 0 t a o.<.t.      ",
"a y + % h h $ u B p i X.*.p.h B &.f.*.+.;.9.x.c.y.c.y.D q.0.u.      1X}.{ . + 3 & A <.,.        ",
"+ . . # h u @ O.D ( i u u g i u h N B +.7.q.oX,X+Xk.7.&.u.4.j.              + % a ,.,.          ",
"# + % % u # & A u h h u k %.&.j M n s m ;.c.`..X%Xq.q.0.7.@.7.                                  ",
"% f y a u y h y y #.+.N O.O.B B O.o.o.N d @.l.^.j.-.1.q.9.o.5.                                  ",
"    y a a y f y y @.-.o.o.i.i.X.B +.N B X.N d X.o.o.#.1.7.$.+.M                                 ",
"            y a d ......@.u.=.#.%.E C.C.T w 8 % h S $.2.1.;.$.B                                 ",
"                  d               F.D.I , > > * # h O.$.7.-.                z T.                ",
"                                    J > > > > > O $ M 3.;.1.              [ a.}.                ",
"                                    = > H J I K X @ u M 3.<.              } /.&X:X              ",
"                                U U U m.B.D.H.F.J o 8 h O.=.            e p (.|.:X:X            ",
"                            H.G.G.G.J.J.K.K.K.K.U . o # u $             z z U.|.:X>X            ",
"                              K.K.K.K.K.K.K.J.    . X . . . . . . .     e W Q U.=X*X            ",
"                                G.K.J.J.G.        . @ o . . . + o o . X O 7 _ (.|.              ",
"                                                  o $ + $ 8 8 y @ 8 2 , H W h.[.                ",
"                                                    o $ & f u 9 % f P U m.W.E.                  ",
"                                                    $ % & u u u 9 a c m.M.N.T                   ",
"                                                      $ % % & & h h h R T                       ",
"                                                                                                ",
"                                                                                                ",
"                                                                                                ",
"                                                                                                "
};
