/* XPM */
static char *_2f79a96f4234c9b996e931f02a8a319LPkBmTZwIODJpzEh[] = {
/* columns rows colors chars-per-pixel */
"48 48 214 2 ",
"   c None",
".  c #130204",
"X  c #1C0305",
"o  c #160609",
"O  c #1C0609",
"+  c #16090C",
"@  c #1C0B0D",
"#  c #1C0E11",
"$  c #1D1215",
"%  c #1E161A",
"&  c #1F191E",
"*  c #250206",
"=  c #2C0307",
"-  c #240509",
";  c #2D0509",
":  c #230C0E",
">  c #330206",
",  c #35040A",
"<  c #3A0309",
"1  c #340A0E",
"2  c #3B0106",
"3  c #250D11",
"4  c #2A0D10",
"5  c #231114",
"6  c #2D1716",
"7  c #23151A",
"8  c #23191E",
"9  c #2A191C",
"0  c #2B1818",
"q  c #331C1C",
"w  c #3A1E1D",
"e  c #30141C",
"r  c #24100E",
"t  c #38211E",
"y  c #1C1D24",
"u  c #241D22",
"i  c #2A1D23",
"p  c #321D20",
"a  c #1D232C",
"s  c #1B2531",
"d  c #1D2937",
"f  c #232127",
"g  c #2B2126",
"h  c #24232B",
"j  c #2C252C",
"k  c #29282F",
"l  c #342223",
"z  c #3A2422",
"x  c #32252A",
"c  c #35292D",
"v  c #3B2B2D",
"b  c #3A2329",
"n  c #232A35",
"m  c #2C2B33",
"M  c #232D3B",
"N  c #2B2E3A",
"B  c #202630",
"V  c #312B33",
"C  c #312F38",
"Z  c #342B32",
"A  c #23303E",
"S  c #2C313D",
"D  c #32323B",
"F  c #3C343A",
"G  c #3A3439",
"H  c #460409",
"J  c #5D0209",
"K  c #530309",
"L  c #54161D",
"P  c #471418",
"I  c #6B0109",
"U  c #79030C",
"Y  c #6C0F19",
"T  c #6D141A",
"R  c #760D17",
"E  c #4D1A22",
"W  c #7A1E28",
"Q  c #492E2B",
"!  c #462926",
"~  c #4C312F",
"^  c #53332C",
"/  c #443334",
"(  c #4E3533",
")  c #463839",
"_  c #543632",
"`  c #5B3A35",
"'  c #553C3A",
"]  c #5B3E3A",
"[  c #563A36",
"{  c #402E36",
"}  c #603F38",
"|  c #63433D",
" . c #69453F",
".. c #1D2F40",
"X. c #1E3143",
"o. c #2A2F40",
"O. c #253444",
"+. c #2B3543",
"@. c #2D3846",
"#. c #223648",
"$. c #253A4C",
"%. c #2A3A4A",
"&. c #333641",
"*. c #343944",
"=. c #343D4A",
"-. c #3B3D45",
";. c #263E53",
":. c #2A3E51",
">. c #453D41",
",. c #523F40",
"<. c #37414E",
"1. c #2B4154",
"2. c #2C445A",
"3. c #2F495E",
"4. c #334353",
"5. c #3A4452",
"6. c #314658",
"7. c #334A5E",
"8. c #3F4D5F",
"9. c #2F4C65",
"0. c #3B556B",
"q. c #375268",
"w. c #3A5C78",
"e. c #3D4E61",
"r. c #3F6179",
"t. c #4A4449",
"y. c #54464A",
"u. c #584949",
"i. c #434B57",
"p. c #4B4A54",
"a. c #484B57",
"s. c #585458",
"d. c #694A44",
"f. c #734E45",
"g. c #7A544C",
"h. c #685856",
"j. c #715955",
"k. c #7F5C53",
"l. c #6F5146",
"z. c #495767",
"x. c #4C5F71",
"c. c #655C61",
"v. c #755F62",
"b. c #566676",
"n. c #486576",
"m. c #676B6A",
"M. c #707276",
"N. c #88030D",
"B. c #8A0B14",
"V. c #870711",
"C. c #94151D",
"Z. c #9C0511",
"A. c #AA0513",
"S. c #A60D1A",
"D. c #A40916",
"F. c #B90A18",
"G. c #B01E2E",
"H. c #8D2D2F",
"J. c #B82031",
"K. c #C70716",
"L. c #D70512",
"P. c #ED0415",
"I. c #E30618",
"U. c #F20516",
"Y. c #FB0516",
"T. c #DE0E21",
"R. c #C01324",
"E. c #E20F24",
"W. c #855E56",
"Q. c #8E5750",
"!. c #A3524C",
"~. c #8A6458",
"^. c #92685C",
"/. c #906459",
"(. c #AE675D",
"). c #9C6D62",
"_. c #966E61",
"`. c #9B786A",
"'. c #897071",
"]. c #A06F63",
"[. c #A67669",
"{. c #B17D6F",
"}. c #B67F71",
"|. c #D17665",
" X c #958078",
".X c #BA8474",
"XX c #B58D7D",
"oX c #BA8676",
"OX c #AD8A75",
"+X c #C38C7C",
"@X c #C8917F",
"#X c #F78474",
"$X c #D7A27E",
"%X c #A97E87",
"&X c #7B8082",
"*X c #989393",
"=X c #828C92",
"-X c #BA9988",
";X c #8E9BA6",
":X c #B2A6A6",
">X c #C39382",
",X c #CA9884",
"<X c #D59D8B",
"1X c #D8AB97",
"2X c #CBAB96",
"3X c #E2AB96",
"4X c #E8AE97",
"5X c #DCBBA7",
"6X c #E7B1A3",
"7X c #C8C1B6",
"8X c #EFCAB4",
"9X c #BDBFC2",
"0X c #D9D0C0",
"qX c #FCEBD1",
/* pixels */
"                                                                                                ",
"                                        5.6.5.                                                  ",
"                                      :.3.;...X.                                                ",
"                                    *.4.n.&Xm.$.6.6.i.                                          ",
"                                  -.%.m.XX1X7X@.s A 1.<.                                        ",
"                                  @.%. X$X3X8Xm.h a O.1.<.                                      ",
"                                D S m ` ~.OX2X_.^ 0 a A <.              3X4X,X                  ",
"                                8 h p ^ `  .l.' Q ! t & a             3X3X3X<X+X                ",
"                                8 r w w e p t ! q r 0 r %         ~.XX>X+X+XW.[.oX              ",
"                                o @ @ r t } d.^ ' k.t + +         z f.].[.W.Q _ k.^.T           ",
"                                  @ @ z w w `.~.W.+X ..             ] | p z ! 6 ! (.C.          ",
"                                    o ( Q f.1X8X2X8XOX}                 q z q O H B.Z.T         ",
"                                      ] XX@X~.OXqXqX,XXX                      X 2 U B.E         ",
"                                      | 1X_.t ` XX8X-X8X                      . 1 L b f         ",
"                                      ` l.` | g. . . X                      . o 7 f B h         ",
"                                        ^ ! } _.oXg.                        . o @ % 8 h         ",
"                                  K.S.  ` [ _.XX1XOX X        m N           . + y 8 u &         ",
"                              I.I.A.J H P ~ ] z d.1XM.i.z.9.6.@.%.          . . 7 u u &         ",
"                                  S.U J w [ ( d.,X8Xn.0.5.O.O.%.:.;.2.1.=.$ . . 7 f u %         ",
"                              R.S.S.K.D.' j.[ ^.8X9Xw.w.a.9.q.9.2.9.:.4.+.u . . $ & & %         ",
"                            F.F.E.E.T.F.v.*Xj.j.0X;Xi.&.&.0.w.2.3.%.4.m h # . o + $ % $         ",
"                            H L J.J.W C.y.u.z v >.x.z.p.9.w.2.$.%.+.m u 7 o X @ $ o $           ",
"                          4 % x / { / ~ t.:X,.) a.:.q.b.x.w.;.O.S h $ @ o . . . o               ",
"                          i C Z i + p ,.y.*Xy.&.e.7.4.p.=X:Xz.O.h # O X K U                     ",
"                          i j g 7 m <.h.F y.g <.q.5.*.b.6X#X'.o.% * > J L.Y.                    ",
"                          i 9 5 8 j p.s.m c m 5.a.s.b.n.%X|.c.d 7 > > I I.Y.U.                  ",
"                        C V Q q 0 t x G G c / t.=.M.&Xq.w.b.#.M e > > K K.Y.Y.                  ",
"                        <.j i i r t r t ) ) *.S =.4.4.1.9.:.d o.Y 2 > H A.Y.Y.P.                ",
"                      &.5.*.C i O . . 5 C <.&.&.*.@.@.+.@.n M N S.I > > B.U.Y.U.                ",
"                      V m i i 5 * * O 5 V &.*.&.D N -.-.S s O.M S.K.K = U U.Y.U.                ",
"                    C V j 5 X O ; , - 0 c c D C N N h.h.M B O.+.W L.    U P.Y.Y.                ",
"                    *.*.*.V : = , , = 3 / d.Z C D D *.*.h m +.N &.      U P.Y.P.                ",
"                    m N V j 3 , , < , O b >.x i V *.=.N u j N o.$.        P.Y.                  ",
"                    i D C k 4 , , < > O l G D j 7 i m h g &.N s.=.        I.                    ",
"                  g g i 7 7 ; , < < , O 5 v x C m 3 p d.g &.+.s.a.                              ",
"                  m m u 8 - > < < < 1 j u / ] i D &.m -.u k +.O.#.                              ",
"                  K W E 9 - , < < < q D &.v F Z 8 C =.o.u u M O.X.                              ",
"                  Z.F.Z.1 = , < < 1 V x *.G x m V 8 i i i h @.;.X.                              ",
"                !.!.H.U = ; , , < 4 Z D Z Z b 0 i V u p ( h $.#.X.d                             ",
"              [.+X>X/.    ; 1 , < H j C Z c ' [ 7 7 j N D u y y d                               ",
"            )..X,XoX[.          V.B.i x Z j G *.*.u # u +.A y y a                               ",
"            )..X+X[.].            Y 9 i 9 9 x D +.*.m $ @ & h f y                               ",
"            {.oX}.]./.              g g g 7 0 c j k m h u # y y                                 ",
"            }  .f. .                  m N j 9 x j u f h h u u a                                 ",
"                                        7 x f x j j f % # % a a                                 ",
"                                        5 f g j n h y + . % y y                                 ",
"                                        8 B k n n d s y . + f                                   ",
"                                        8 f B n n s s a + # %                                   "
};
