/* XPM */
static char *aim3a_w9p4t[] = {
/* columns rows colors chars-per-pixel */
"48 48 154 2 ",
"   c #6C4735",
".  c #6E4A37",
"X  c #6E4B3B",
"o  c #724F3F",
"O  c #794C3A",
"+  c #73503F",
"@  c #7D4E42",
"#  c #765444",
"$  c #7B5445",
"%  c #775847",
"&  c #7C5846",
"*  c #7D574A",
"=  c #7D5B4B",
"-  c #834F41",
";  c #835545",
":  c #8B5245",
">  c #825A46",
",  c #8A5847",
"<  c #84564A",
"1  c #8C554A",
"2  c #835C4C",
"3  c #8B5C4C",
"4  c #935C4E",
"5  c #855C51",
"6  c #8C5E52",
"7  c #935E53",
"8  c #985D55",
"9  c #965F58",
"0  c #9D5F59",
"q  c #84614F",
"w  c #8D604E",
"e  c #90624D",
"r  c #846251",
"t  c #8C6354",
"y  c #8D6956",
"u  c #8E6458",
"i  c #8D6A5A",
"p  c #946454",
"a  c #9A6456",
"s  c #936956",
"d  c #996A56",
"f  c #94655A",
"g  c #9C655B",
"h  c #956A5B",
"j  c #9C6B5C",
"k  c #95715D",
"l  c #9C705E",
"z  c #A26D57",
"x  c #A86957",
"c  c #A1655B",
"v  c #A26C5D",
"b  c #AA6D5D",
"n  c #A3715E",
"m  c #AC715D",
"M  c #9D6660",
"N  c #966C61",
"B  c #9C6D62",
"V  c #967262",
"C  c #9D7263",
"Z  c #9C7967",
"A  c #9F7469",
"S  c #9C7A6A",
"D  c #A46761",
"F  c #A36D62",
"G  c #AA6E63",
"H  c #A66F68",
"J  c #AE6E6A",
"K  c #A47363",
"L  c #A47565",
"P  c #A67465",
"I  c #A87261",
"U  c #A97362",
"Y  c #AD7263",
"T  c #A87066",
"R  c #AC7165",
"E  c #AC7666",
"W  c #A57967",
"Q  c #A67A66",
"!  c #AB7967",
"~  c #A47469",
"^  c #A7756B",
"/  c #A87268",
"(  c #AD726B",
")  c #AB7769",
"_  c #AB756B",
"`  c #AB766C",
"'  c #AE766E",
"]  c #A67A6C",
"[  c #AB796A",
"{  c #AC7A68",
"}  c #AC786A",
"|  c #AC7B6B",
" . c #AE7A6B",
".. c #AB7D6B",
"X. c #B27564",
"o. c #B37A65",
"O. c #B1756A",
"+. c #B0766A",
"@. c #B3796C",
"#. c #B07A6D",
"$. c #B27C6E",
"%. c #B77D6E",
"&. c #B87C6D",
"*. c #AF7770",
"=. c #A67F71",
"-. c #AC7C71",
";. c #AF7D73",
":. c #B07570",
">. c #B37D72",
",. c #B77C71",
"<. c #B97E73",
"1. c #AB806E",
"2. c #B3826D",
"3. c #BA826E",
"4. c #AD8272",
"5. c #AF8472",
"6. c #AE8578",
"7. c #AF8679",
"8. c #AE887A",
"9. c #B28273",
"0. c #B08471",
"q. c #B38374",
"w. c #BA8374",
"e. c #BC8177",
"r. c #BB8577",
"t. c #B38976",
"y. c #BA8874",
"u. c #B4857A",
"i. c #B5877C",
"p. c #B8827A",
"a. c #BC8678",
"s. c #BC857A",
"d. c #B8867C",
"f. c #B48B7A",
"g. c #BA8979",
"h. c #BB8A7B",
"j. c #BA887E",
"k. c #BD8C7D",
"l. c #BD907D",
"z. c #BC927F",
"x. c #C08675",
"c. c #C28C7E",
"v. c #B58D80",
"b. c #BD8C81",
"n. c #BD8D81",
"m. c #BD9283",
"M. c #C28D81",
"N. c #C88F85",
"B. c #C29384",
"V. c #C29786",
"C. c #CA9587",
"Z. c #C59389",
"A. c #CA958C",
"S. c #C49A8D",
/* pixels */
"a a a j U U j U U E Y b b G %. .n 0.z.5.P d j j K ..Q j  . .U G G v T G T  .9.V.k. .K F v j ) $.",
"1 1 p 3 1 4 ; a d a p 1 4 4 a j s 3 u t 2 # # & + # & & 6 6 7 7 7 s j F F j u h s f 6 * 2 2 t u ",
"d a $.@.g a 4 8 a a j 7 j K j P C a 8 c D g 8 g 7 7 6 9 p g g 8 8 ^ p.( D D g g g g 9 1 F j f p ",
"G G a.g.P [ [ v a j v g @.r. .[ j j g F F / F ` F j h j d F F f p 7.S.i.K B j K K K K f P B h h ",
"t 3 t p t p ; $ ; 3 p 4 : 4 1 4 - @ $ # . . . # $ 2 < ; 3 3 p 6 & i V y 2 * 2 r > < 2 # * > > & ",
"R G v c v R G +.R G G g a a v  .F j v F j a p g T T G G G G ,.e.T d.g.b.-.F F ' F G D G G D c c ",
"v v j F P 9.[  .j j U v v j v ) K  .@.+.G v c b +.R T T G j v ) P ] 4.u.u.-.B F j d j j j F G U ",
". & s l C h p t t p 7 1 p a d s s j F j j a a v v v d d 3 $ > < < u r y N h p 6 p h p w p p p t ",
"a b x.%.o.%.w.%.v <.>.)  .g.$. .9.t.y.g.c.w.U +.X.G b X.X.G G G +.a.o.) E ,.%.R b @.3.o.w.X.Y R ",
"1 , v j K d d F p 7 C C h F f h C | ] -.[ ^ M g F j d p a j g j v K K j n K K P v j j j [ ) G U ",
"O O & = 5 2 # * * # o # & $ < 3 > > r 5 5 5 6 f 6 > & $ h C h h h u u h s 2 3 B B A A B N f B f ",
"v G o.2.y.o.z z z z T G G G X.R T b X.m X.o.o.X.X.U U K k.M.9.9. .Y m o.o.m m 3.3.x.3.o.X.b x m ",
"g a a j j U a c c c U j c v c g 8 p b b m m U a a s d a F K a p 3 g a j a a a v d j p 1 1 4 4 4 ",
"3 s j F g M M g g F C h ! U j j s h B ^ ^ K ^ ^ K B P Q j C K l f f N N N B N f u N N f C B B ^ ",
"a T o.o.X.m m b b X.w.o.<.&.G R %.E b z Y Y m 2.w.+.G G G R @.%.R c U  . . .m U U U Y z o.Y z b ",
"< < 3 3 e , ; p p j n a c c a a , 3 1 1 3 ; ; , 3 , , O O , s p , p h h h t ; 3 h s s 3 3 p p 1 ",
"n K K K K [ F ) -.) ) K E  .)  .! )  ./ K M F F ^ Q P l P 9.g.0.-.K K ) q.^ K -.[ K j K ^ ^ K ) ",
"b U U E  .r.T g v g a g G G )  .) U R G G g g G b j [ F P 9.r.$.$.@.T $.M.>.F $.@.G v K [ ) T $.",
"2 2 t y t y & .   . X + # # o $ & & & < 2 t t q r 2 q r r i i r # = k V ] Z y h y r r = r i y y ",
"G /  .T T G v F G ) ^ ] / / / >.p.<.<.:./ H ' p.>./ F / ` / F M f B u.u.M.Z.a.a.p.p.-.^ q.>.) ' ",
",.G D G G G G v G  ./ M M H F D D G D D D 8 g H M g 9 9 f g g g 1 g *.` :.:.,.J ' *.*.M F / F D ",
"Z y q y y r r t i h r r = y V y 2 y h r r 5 % # = = # # = # = r & = r & 2 r & $ 2 2 2 r = r r 2 ",
"g.q.r.a.c.9. . .r.c.$.$.@.r.C.g.[ 9.g.$.>.>.9. .9. . .>.r.t.t.B.q.,.w.$. . .P -. .,.9.[ |  . . .",
"..Q P F K j p j F j p p p s d j s j F d v d j j j K K U K P j [ v j F ) K F j K v j s 3 p d v v ",
"S S N u u 6 2 6 s u h h =.8.S t t B ^ C C u B B ^ u.] B B C 4.^ h Z 7.C h f f j j h r r S S K F ",
"u.i.] F v v F F j F T *.A.b.i.>. .>.r.k.>. .a.p.N.A.:.' ) :.M.b.` g.B.q. .' >.a.a.>.*.-.V.Z.b.<.",
"2 < < 3 t w 3 t w t t 2 2 2 u h t h l C h h h C h p > 2 u s h h s y y h h t r N ^ B h t Z V f f ",
"f 7 a j U j s a a j j 7 6 K j j B K Q P h h a j v K ^ B K Q P C B B C C C h C ] ^ K K B B B j F ",
"+.J G +.@.@.Y +.+.@.,.+.R e.<.@.+.G $.) G G G G G @.e. .<.<.+.+.,.@.,.a.c.w.@.$. .v v G R @.R  .",
"@ 6 f h f f p j j p u p h B P Q P u u y s t t C h h p 3 h h s p 3 t h C Q C t d j l h j Q q.q.4.",
"B s K B B B f f h f s j | |  .4.t.f.m.m.7.7.i.m.] K j v K P [ [ K 1.t.| Q [ )  .4.5.Q P 4.0.V.m.",
"F g j g g g F g p p s f -.:.K B Q  .u.u.-.q.-.` F ) K K K F ) >. .r.M.a.q.'  .>.@.[  .F  .[ ] ^ ",
"2 < 2 $ & > $ & & $ & = r & # o X % $ & = 2 % $ % * < < < < 6 f 6 p s h 2 # r i t 6 2 # 2 = & # ",
" .^  .1.C h K Q l C Q 5.g.P P P Q ] ^ B B ^ C C ^ B / F ] -.^ / / ` *.u.-.C f.m.u.-.] B A ] v.8.",
"G v G o.b v v E b Y E o.+.G &.+.R G D g D F F D G g f f ` / ` ` M c D ,.:./ >.:.) ' / H / / p.B.",
"s d l j d w e d K j h l K K K v l h u 6 u u 6 B s 7 7 7 7 7 f M f f s h s u u 6 u u s N ^ C N A ",
"[ 1.q.) ) K j j K Q [ 4.9.r.r.9.9.4.] -.4.-.B -.` u.b.b.u.q.] ] B i.q.] ] -.-.u.-.^ ] -.u.] ] q.",
"a a a g c v a 8 v G j j D D G F g j g g F F 9 v F B B B B u # s f F F F F F M / / ` F g D 0 0 g ",
"d s d B K f t f j j C A ] -.^ B h A ] h s h 6 6 s u 2 2 h C s u B u h h t t B C ^ -.] j f j j d ",
"E  .)  .r.q. .[  .$. .9.g.B.h.g.q.B.C.,. . .@.@.,.$. .) k.t.9.t.g.2. .q.2. .2.2.w.w.,.[ ) @.,.w.",
"s k h v K j s j a g d d v P )  .P Q  .U v j K K [  .) U  .K ) K z z z  .2.K n K s 7 d l C d v  .",
"j 1.[ G v K j K ) F v U  .t.r.[ ..4.1. .q.4.] 1.9.t. .K K G v U K m n U ! K j h j K 4.5.f. .P K ",
"E $.2. .P P P [ >.>.) K 9.r.r.[ Q 4.] 1.m.m.4.g.g.9. .@. . . .,.%.$.) n ! ..K P P 9.b.q.V.4.9. .",
"K P ! [ P C h P K P K d j j d s p K K K )  .j K j f 6 j F g D D v v K ! P h l P F F  .] q.K v G ",
"w.w.a.t.t.Q C 1... . . . .[ 4.4.1.B.r. .F U  .) $.u.-.-.g.>.:.' / [  .t.0.| t.m.k.>.,.q.b.u.>.q.",
" .! !  .9.| C ....| $. .) [ [ q.g.t. .K j j P Q 4.f.i.] j.u.*.F K K K [ ..P | q.q.] h h C =.-.-.",
"2 > w a j d d h d j z a 4 4 p j P P h l l k y s l C C f j K h p p Q K p a a p d h j h t 6 p p p ",
"m o.o.w.%.R o.o.E Y o. .9. . .@. .2. . .z.z.1.| r.c.o.G R @. .9.Q t.9.o.G G v E 0.f.z.9. .) +.@."
};
